<?xml version="1.0" encoding="UTF-8" standalone="no"?>
<svg
   xmlns:dc="http://purl.org/dc/elements/1.1/"
   xmlns:cc="http://creativecommons.org/ns#"
   xmlns:rdf="http://www.w3.org/1999/02/22-rdf-syntax-ns#"
   xmlns:svg="http://www.w3.org/2000/svg"
   xmlns="http://www.w3.org/2000/svg"
   viewBox="0 0 6666.6665 6663.96"
   height="6663.96"
   width="6666.6665"
   xml:space="preserve"
   id="svg2"
   version="1.1"><metadata
     id="metadata8"><rdf:RDF><cc:Work
         rdf:about=""><dc:format>image/svg+xml</dc:format><dc:type
           rdf:resource="http://purl.org/dc/dcmitype/StillImage" /></cc:Work></rdf:RDF></metadata><defs
     id="defs6"><clipPath
       id="clipPath184"
       clipPathUnits="userSpaceOnUse"><path
         id="path182"
         d="m 32331.3,15309.8 c 323.1,1368.5 490.7,2768.6 -241.7,3700.7 -330.7,421 -920,714.2 -1402.2,922.6 -940.7,406.6 -1902.3,953.1 -2909.2,1130.3 -1061.6,186.8 -2242.3,301.9 -3300.3,34.8 -672,-169.7 -1300.7,-483.9 -1901.6,-822.7 -521.5,-294 -1161.2,-547.1 -1414.3,-1094.2 -613.4,-1325.8 -1157.8,-2708.9 -1609.4,-4097.9 -377.8,-1162.1 -792.5,-2380.3 -197.2,-3558.1 192.9,-381.6 473.1,-708.3 693.7,-1072.9 245.8,-406.2 337.5,-787.7 369.7,-1256.3 73.6,-1068.99 44.9,-2141.2 41.9,-3211.69 -0.9,-308.61 3.2,-629.31 138.3,-906.61 266.3,-546.89 990,-554.5 1511.4,-553.6 1718.3,2.91 3436.7,5.9 5155,8.9 715,1.2 1261.2,-86.3 1932.4,-224.3 564.9,-116.1 1049.8,169 1320.8,694.61 256.5,497.5 276.1,1078.59 303.6,1637.7 106.9,2175.39 415.5,4340.69 920.5,6459.39 143,599.9 393.8,1384.4 588.6,2209.3" /></clipPath></defs><g
     transform="matrix(1.3333333,0,0,-1.3333333,0,6663.96)"
     id="g10"><g
       transform="scale(0.1)"
       id="g12"><g
         transform="scale(3.06624)"
         id="g14"><path
           id="path16"
           style="fill:#ffffff;fill-opacity:1;fill-rule:nonzero;stroke:none"
           d="M 16300,0 H 0 V 16300 H 16300 V 0" /></g><g
         transform="scale(2.84504)"
         id="g18"><path
           id="path20"
           style="fill:#f5f5fe;fill-opacity:1;fill-rule:nonzero;stroke:none"
           d="m 12183.2,2605.2 -15.7,26.75 c 443.7,258.69 960.4,278.76 1460.1,298.17 204.7,7.94 416.3,16.13 617.2,41.01 940.2,116.42 1633.3,721.82 1853.9,1619.49 201.3,819 -23.5,1695.37 -586.8,2287.13 -28.5,29.99 -57.7,60.39 -86,89.81 -195.7,203.55 -398.1,414.05 -542.3,661.71 -91.1,156.59 -151.2,327.03 -178.3,506.67 -25.2,166.33 -22.5,341.9 8,521.86 54.9,324.35 199,659.85 416.7,970.25 57.5,82.07 118.3,164.39 177.1,244 188.5,255.25 383.4,519.25 506.9,821.35 147.9,361.5 182.4,824.3 97.3,1303.2 -138.9,781 -579.4,1484.1 -1178.3,1880.9 -777.2,514.6 -1598.9,402.7 -2468.9,284.2 -362.7,-49.4 -735.2,-100.1 -1103.5,-100.1 -95.7,0 -191.1,3.4 -286,11.2 -168.4,13.8 -336.8,43.6 -500.6,88.8 -164.8,45.4 -325.8,106.6 -478.33,181.7 -317.89,156.5 -593.49,368.7 -819.11,630.7 -647.23,751.5 -1533.05,1163.9 -2383.97,1163.9 -369.87,0 -732.93,-77.9 -1067.26,-239.6 -672.86,-325.6 -1225.57,-943.5 -1516.43,-1695.4 -165.44,-427.7 -198.8,-892.1 -231.03,-1341.1 -30.23,-420.6 -61.44,-855.5 -199.82,-1266.6 -77.93,-231.6 -193.49,-460 -334.21,-660.7 -150.26,-214.3 -323.2,-391.6 -514.03,-527 -517.3,-366.9 -869.07,-719.17 -1107.04,-1108.55 -343.69,-562.38 -420.48,-1228.14 -200.38,-1737.48 157.55,-364.6 463.46,-597.64 759.3,-822.98 153.69,-117.08 312.6,-238.13 447.38,-375.53 151.63,-154.62 256.44,-314.51 320.41,-488.85 52.96,-144.35 78.3,-311.56 77.46,-511.2 -0.98,-232.65 -44,-470.86 -85.6,-701.26 -70.61,-390.96 -143.62,-795.27 -12.33,-1182.33 85.84,-253.04 301.64,-436.91 641.41,-546.43 238.55,-76.94 530.75,-116.8 893.27,-121.96 107.21,-1.52 217.05,-0.6 323.3,0.28 418.73,3.48 851.76,7.13 1249.82,-135.5 l -10.47,-29.18 c -392.86,140.77 -823.05,137.19 -1239.1,133.71 -106.4,-0.91 -216.45,-1.83 -323.97,-0.28 -365.65,5.17 -660.83,45.55 -902.38,123.41 -349.59,112.72 -572.06,303.16 -661.22,566 -133.86,394.65 -60.13,802.94 11.17,1197.8 41.37,229.07 84.15,465.93 85.11,695.84 0.83,195.92 -23.89,359.61 -75.57,500.42 -139.24,379.5 -439.54,608.25 -757.46,850.39 -299.01,227.8 -608.21,463.3 -768.98,835.35 -59.45,137.6 -98.72,286.07 -116.72,441.36 -17.1,147.49 -15.09,301.4 5.96,457.53 40.15,297.72 148.43,597.53 313.15,867.06 240.23,393.06 594.71,748.18 1115.55,1117.68 369.2,261.9 674.19,689.1 836.78,1172.2 137.12,407.4 168.22,840.3 198.28,1259 32.4,451.3 65.94,918 233.07,1350 293.63,759.2 851.97,1383.2 1531.82,1712.2 292.05,141.3 606.14,222.3 933.52,240.6 309.31,17.4 626.07,-21 941.53,-114.3 606.95,-179.4 1179.84,-555.2 1613.16,-1058.3 438.76,-509.4 1086.46,-834 1777.06,-890.5 456.6,-37.4 927.5,26.7 1382.8,88.7 418.9,57.1 852,116.1 1269.1,94.6 224.8,-11.7 427.4,-45.1 619.5,-102.2 215.5,-64.1 412.3,-156.2 601.5,-281.5 300.1,-198.7 568.7,-481.4 777,-817.3 203.7,-328.7 347.1,-703.6 414.8,-1084 40.6,-228.6 54.7,-453.5 41.8,-668.5 -14.2,-238.7 -61.6,-458 -140.9,-651.8 -125,-305.7 -321,-571.2 -510.7,-828.07 -58.7,-79.44 -119.3,-161.61 -176.7,-243.37 -475.3,-677.81 -566.8,-1412.53 -244.9,-1965.38 142.3,-244.46 343.4,-453.6 537.8,-655.88 28.3,-29.42 57.6,-59.86 86.2,-89.88 281.8,-296.09 485.6,-670.28 589.3,-1082.05 102.1,-405.45 103.9,-832.12 5.1,-1233.83 -55.7,-226.82 -142.5,-438.52 -257.8,-629.13 -112.9,-186.68 -253.1,-353.07 -416.6,-494.58 -326.5,-282.39 -743.4,-461.89 -1205.8,-519.15 -202.2,-25.03 -414.5,-33.25 -619.8,-41.23 -495.9,-19.26 -1008.7,-39.19 -1445.6,-293.95" /></g><g
         transform="scale(2.81579)"
         id="g22"><path
           id="path24"
           style="fill:#f5f5fe;fill-opacity:1;fill-rule:nonzero;stroke:none"
           d="m 2166.2,9968.74 c -383.66,-545.53 -679.68,-1287.7 -474.27,-1972.76 204.79,-682.94 859.71,-1104.06 1145.92,-1752.76 161.76,-366.65 166.09,-769.8 172.22,-1163.37 8.02,-515.2 -92.63,-1062.29 255.57,-1497.7 205.96,-257.54 516.74,-409.68 831.01,-509.66 631.15,-200.76 1292.35,-295.01 1852.97,-674.19 921.02,-622.95 2052.07,-840.76 3149.67,-773.46 556.61,34.13 1108.61,138.93 1641.71,301.62 619.5,189.08 1170.1,523.76 1793.8,703.03 1081.1,310.71 2559.2,314.98 3191.8,1408.7 425.9,736.35 573.4,1646.47 242.1,2448.76 -157.6,381.49 -458.2,672.85 -629.5,1047.38 -236.6,517.44 -300.4,1107.43 -142.3,1657.12 6.5,22.62 13.4,45.14 20.5,67.55 165.2,513.92 497.6,955.8 635.2,1479 283.8,1080.1 -343.5,2222.1 -1168,2916.3 -342.7,288.5 -725.5,528.6 -1142.5,665.4 -579.4,190.2 -1191.3,173.7 -1803.3,157.2 -602.8,-16.3 -1205.8,-32.6 -1778.12,148.6 -884.97,280.1 -1611.48,1008.3 -2513.18,1218.8 -692.92,161.9 -1441.69,-10.9 -2030.34,-433.8 -588.61,-422.9 -1015.73,-1084.8 -1210.46,-1813.7 -180.41,-675.4 -174.76,-1417.3 -494.71,-2030.9 -273.75,-524.9 -781.1,-808.1 -1193.02,-1189 -128.21,-118.5 -246.61,-257.2 -352.77,-408.16" /></g><g
         transform="scale(2.87793)"
         id="g26"><path
           id="path28"
           style="fill:#f5f5fe;fill-opacity:1;fill-rule:nonzero;stroke:none"
           d="m 15523.8,15071.2 c 9.9,60.5 -70.1,182.5 -157.4,180.5 -34.8,-0.8 -68.8,-9.8 -103.4,-8.1 -92.5,4.5 -140.4,76.5 -176,136.1 -35.6,59.6 -106.6,127.5 -196.6,112.4 -129.7,-21.8 -195.1,-192.9 -342.5,-64.4 -96.5,84.1 -103.8,201.7 -213,283.2 -75.1,56 -197,89.2 -297.6,58.2 -131.2,-40.3 -180,-170.5 -319.8,-193.1 -154.7,-25.1 -266,92.7 -315.4,177.6 -60,103 -82.2,214.4 -133.6,319.3 -47.5,97.1 -143.1,227.1 -314.4,224.3 -144.8,-2.4 -208.6,-94.1 -279.7,-166.9 -92.5,-94.6 -284.6,-434.5 -500.1,-393.5 -84,16 -125.9,82.7 -201.8,112.6 -121.8,48 -277.2,-18 -350.6,-101.1 -73.4,-83 -102.5,-183.3 -185.5,-261.9 -21.5,-20.3 -47.5,-39.5 -81.2,-48.7 -116,-31.7 -223.8,65.8 -347.9,73.1 -85.7,5 -165.1,-35.2 -214.3,-84.3 -49.3,-49.1 -76.1,-107.1 -113.8,-160.9 -10.5,-15 -22.4,-30.2 -41.4,-40.3 -54.4,-29.2 -131,-4.6 -197.7,6.9 -164.7,28.3 -351.9,-47.3 -398.4,-161 h 5482.1" /></g><g
         transform="scale(2.31976)"
         id="g30"><path
           id="path32"
           style="fill:#f5f5fe;fill-opacity:1;fill-rule:nonzero;stroke:none"
           d="m 4119.9,15516.3 c 6.38,38.6 -44.68,116.4 -100.39,115.1 -22.16,-0.5 -43.83,-6.2 -65.95,-5.1 -58.95,2.9 -89.5,48.7 -112.22,86.7 -22.72,38.1 -67.96,81.4 -125.41,71.7 -82.72,-13.8 -124.41,-123 -218.42,-41 -61.55,53.6 -66.17,128.6 -135.86,180.6 -47.83,35.7 -125.62,56.8 -189.75,37.1 -83.7,-25.7 -114.83,-108.7 -203.94,-123.1 -98.72,-16 -169.7,59.1 -201.21,113.2 -38.24,65.8 -52.44,136.8 -85.19,203.7 -30.31,61.9 -91.28,144.8 -200.51,143 -92.36,-1.5 -133.06,-60 -178.4,-106.4 -58.97,-60.4 -181.5,-277.1 -318.91,-251 -53.59,10.2 -80.34,52.7 -128.69,71.8 -77.73,30.7 -176.81,-11.5 -223.64,-64.4 -46.83,-53 -65.39,-117 -118.31,-167 -13.69,-13 -30.31,-25.3 -51.81,-31.2 -73.92,-20.2 -142.73,42.1 -221.87,46.7 -54.62,3.2 -105.3,-22.5 -136.69,-53.8 -31.4,-31.3 -48.52,-68.3 -72.55,-102.6 -6.69,-9.6 -14.28,-19.2 -26.37,-25.7 -34.719,-18.6 -83.564,-2.9 -126.095,4.4 -105.083,18 -224.459,-30.2 -254.099,-102.7 H 4119.9" /></g><g
         transform="scale(2.86607)"
         id="g34"><path
           id="path36"
           style="fill:#dbcdfe;fill-opacity:1;fill-rule:nonzero;stroke:none"
           d="M 15027.7,2254.59 H 16300 V 7981.64 H 15027.7 V 2254.59" /></g><g
         transform="scale(2.64236)"
         id="g38"><path
           id="path40"
           style="fill:#dbcdfe;fill-opacity:1;fill-rule:nonzero;stroke:none"
           d="M 16300,2445.47 H 14217.5 V 6750.95 H 16300 V 2445.47" /></g><g
         transform="scale(3.06748)"
         id="g42"><path
           id="path44"
           style="fill:#dbcdfe;fill-opacity:1;fill-rule:nonzero;stroke:none"
           d="M 16300,2106.55 H 14506.1 V 4711.22 H 16300 V 2106.55" /></g><g
         transform="scale(2.82403)"
         id="g46"><path
           id="path48"
           style="fill:#dbcdfe;fill-opacity:1;fill-rule:nonzero;stroke:none"
           d="M 15251.4,8100.45 H 16300 v 284.13 h -1048.6 v -284.13" /></g><g
         transform="scale(2.791)"
         id="g50"><path
           id="path52"
           style="fill:#dbcdfe;fill-opacity:1;fill-rule:nonzero;stroke:none"
           d="m 15431.9,8483.81 h 868.1 v 287.46 h -868.1 v -287.46" /></g><g
         transform="scale(2.75947)"
         id="g54"><path
           id="path56"
           style="fill:#dbcdfe;fill-opacity:1;fill-rule:nonzero;stroke:none"
           d="m 15608.2,8871.5 h 691.8 v 290.74 h -691.8 V 8871.5" /></g><g
         transform="scale(1.98292)"
         id="g58"><path
           id="path60"
           style="fill:#dbcdfe;fill-opacity:1;fill-rule:nonzero;stroke:none"
           d="m 14461,3258.73 h 1839 V 11536.5 H 14461 V 3258.73" /></g><g
         transform="scale(2.59488)"
         id="g62"><path
           id="path64"
           style="fill:#dbcdfe;fill-opacity:1;fill-rule:nonzero;stroke:none"
           d="M 14894.7,2490.21 H 16300 V 10863.8 H 14894.7 V 2490.21" /></g><g
         transform="scale(1.7592)"
         id="g66"><path
           id="path68"
           style="fill:#dbcdfe;fill-opacity:1;fill-rule:nonzero;stroke:none"
           d="M 12154.4,3673.14 H 16300 V 7283.7 H 12154.4 V 3673.14" /></g><g
         transform="scale(2.32051)"
         id="g70"><path
           id="path72"
           style="fill:#dbcdfe;fill-opacity:1;fill-rule:nonzero;stroke:none"
           d="M 13142.9,2784.65 H 16300 V 13252.8 H 13142.9 V 2784.65" /></g><g
         transform="scale(1.94088)"
         id="g74"><path
           id="path76"
           style="fill:#dbcdfe;fill-opacity:1;fill-rule:nonzero;stroke:none"
           d="M 14774.2,11786.4 H 16300 v 413.4 h -1525.8 v -413.4" /></g><g
         transform="scale(1.90785)"
         id="g78"><path
           id="path80"
           style="fill:#dbcdfe;fill-opacity:1;fill-rule:nonzero;stroke:none"
           d="m 15030,12411 h 1270 v 420.5 H 15030 V 12411" /></g><g
         transform="scale(1.87632)"
         id="g82"><path
           id="path84"
           style="fill:#dbcdfe;fill-opacity:1;fill-rule:nonzero;stroke:none"
           d="M 15282.6,13047.1 H 16300 v 427.6 h -1017.4 v -427.6" /></g><g
         transform="scale(1.55429)"
         id="g86"><path
           id="path88"
           style="fill:#dbcdfe;fill-opacity:1;fill-rule:nonzero;stroke:none"
           d="M 13953.9,4157.4 H 16300 V 14717.9 H 13953.9 V 4157.4" /></g><g
         transform="scale(1.77801)"
         id="g90"><path
           id="path92"
           style="fill:#dbcdfe;fill-opacity:1;fill-rule:nonzero;stroke:none"
           d="m 16300,3634.3 h -2050.9 v 7671.2 H 16300 V 3634.3" /></g><g
         transform="scale(1.62926)"
         id="g94"><path
           id="path96"
           style="fill:#dbcdfe;fill-opacity:1;fill-rule:nonzero;stroke:none"
           d="M 13311.8,3966.1 H 9934.4 V 16300 h 3377.4 V 3966.1" /></g><g
         transform="scale(1.51225)"
         id="g98"><path
           id="path100"
           style="fill:#dbcdfe;fill-opacity:1;fill-rule:nonzero;stroke:none"
           d="M 14341.8,15127.1 H 16300 v 530.6 h -1958.2 v -530.6" /></g><g
         transform="scale(1.50188)"
         id="g102"><path
           id="path104"
           style="fill:#dbcdfe;fill-opacity:1;fill-rule:nonzero;stroke:none"
           d="m 14440.9,15765.8 h 1613.2 v 534.2 h -1613.2 v -534.2" /></g><g
         transform="scale(1.5511)"
         id="g106"><path
           id="path108"
           style="fill:#dbcdfe;fill-opacity:1;fill-rule:nonzero;stroke:none"
           d="m 13982.6,15782.8 h 1230.7 v 517.2 h -1230.7 v -517.2" /></g><g
         transform="scale(1.40343)"
         id="g110"><path
           id="path112"
           style="fill:#dbcdfe;fill-opacity:1;fill-rule:nonzero;stroke:none"
           d="M 5196.6,4604.29 H 7794.9 V 16300 H 5196.6 V 4604.29" /></g><g
         transform="scale(1.2332)"
         id="g114"><path
           id="path116"
           style="fill:#dbcdfe;fill-opacity:1;fill-rule:nonzero;stroke:none"
           d="M 2956.96,5239.86 H 5913.92 V 16300 H 2956.96 V 5239.86" /></g><g
         transform="scale(1.37285)"
         id="g118"><path
           id="path120"
           style="fill:#dbcdfe;fill-opacity:1;fill-rule:nonzero;stroke:none"
           d="M 8593.86,4706.84 H 11250 V 16300 H 8593.86 V 4706.84" /></g><path
         id="path122"
         style="fill:#dbcdfe;fill-opacity:1;fill-rule:nonzero;stroke:none"
         d="m 0,6461.8 h 3646.53 v 7923.5 H 0 V 6461.8" /><g
         transform="scale(1.13169)"
         id="g124"><path
           id="path126"
           style="fill:#dbcdfe;fill-opacity:1;fill-rule:nonzero;stroke:none"
           d="M 8055.51,5709.88 H 14529 V 16300 H 8055.51 V 5709.88" /></g><g
         transform="scale(1.45266)"
         id="g128"><path
           id="path130"
           style="fill:#dbcdfe;fill-opacity:1;fill-rule:nonzero;stroke:none"
           d="M 5020.5,15747.6 H 7059 V 16300 H 5020.5 v -552.4" /></g><path
         id="path132"
         style="fill:#dbcdfe;fill-opacity:1;fill-rule:nonzero;stroke:none"
         d="m 3352.85,9136.2 h 2961.27 v 802.3 H 3352.85 v -802.3" /><g
         transform="scale(1.50188)"
         id="g134"><path
           id="path136"
           style="fill:#dbcdfe;fill-opacity:1;fill-rule:nonzero;stroke:none"
           d="M 4855.96,15765.8 H 6469.19 V 16300 H 4855.96 v -534.2" /></g><g
         transform="scale(1.5511)"
         id="g138"><path
           id="path140"
           style="fill:#dbcdfe;fill-opacity:1;fill-rule:nonzero;stroke:none"
           d="M 4701.87,15782.8 H 5932.56 V 16300 H 4701.87 v -517.2" /></g><g
         transform="scale(1.70739)"
         id="g142"><path
           id="path144"
           style="fill:#dbcdfe;fill-opacity:1;fill-rule:nonzero;stroke:none"
           d="M 13492.2,10402.5 H 16300 v 469.9 h -2807.8 v -469.9" /></g><g
         transform="scale(1.70739)"
         id="g146"><path
           id="path148"
           style="fill:#dbcdfe;fill-opacity:1;fill-rule:nonzero;stroke:none"
           d="M 13492.2,8718.68 H 16300 v 469.89 h -2807.8 v -469.89" /></g><g
         transform="scale(1.70739)"
         id="g150"><path
           id="path152"
           style="fill:#dbcdfe;fill-opacity:1;fill-rule:nonzero;stroke:none"
           d="M 13492.2,7034.82 H 16300 v 469.9 h -2807.8 v -469.9" /></g><path
         id="path154"
         style="fill:#dbcdfe;fill-opacity:1;fill-rule:nonzero;stroke:none"
         d="m 4662.43,12011.2 h 4793.99 v 802.3 H 4662.43 v -802.3" /><path
         id="path156"
         style="fill:#dbcdfe;fill-opacity:1;fill-rule:nonzero;stroke:none"
         d="m 4662.43,9136.2 h 4793.99 v 802.3 H 4662.43 v -802.3" /><g
         transform="scale(2.35985)"
         id="g158"><path
           id="path160"
           style="fill:#0b2d4e;fill-opacity:1;fill-rule:nonzero;stroke:none"
           d="m 14570,5761.38 c -583.2,-206.37 -1286.7,-185.27 -1817.4,155.18 -521.7,334.64 -997,576.26 -1638.9,564.57 -573.5,-10.47 -1047.8,-320.49 -1603.27,-386.47 -440.58,-52.33 -888.15,139.76 -1207.45,447.78 -311.72,300.7 -518.72,759.16 -383.16,1170.5 70.93,215.35 226.03,393.08 314.55,601.82 204.12,481.51 -333.37,772 -199.72,1278.85 113.7,431.09 586.69,738.49 579.66,1184.29 -5.17,326.3 -257.77,579.2 -346.72,881.1 -89.75,304.5 -69.92,645.6 88.4,923.9 116.32,204.4 303.19,371.8 519.73,464.1 194.46,82.8 411.77,84.4 562.16,254.3 267.98,302.9 366.29,631.1 734.02,852.6 311.3,187.4 722.4,199.3 1079.6,166.6 793.6,-72.7 1563.8,-491.6 2010.8,-1158.8 158.5,-236.4 272.8,-478.4 276.8,-759.4 4.3,-307.1 4.2,-616.1 192.4,-877.3 158,-219.3 411.7,-347.6 663.2,-446.5 251.5,-98.9 515.1,-179 735.9,-334.9 220.8,-155.9 396.2,-410.2 370.4,-679.2 -21.6,-225.18 -177.4,-420.87 -198.2,-646.14 -37.7,-409.6 356.9,-707.08 600.1,-1038.79 340.7,-464.4 397.1,-1121.09 140.8,-1636.8 -295.2,-593.77 -831.4,-727.63 -1393.3,-951.12 -26.5,-10.51 -53.3,-20.6 -80.4,-30.17" /></g><g
         transform="scale(2.16927)"
         id="g162"><path
           id="path164"
           style="fill:#73b8d4;fill-opacity:1;fill-rule:nonzero;stroke:none"
           d="m 11236.8,14598.5 c 209.9,122.6 453.7,178.8 696,188.4 243.1,9.3 486.8,-21.9 722.9,-80.7 473.5,-119.2 904.7,-401 1205.5,-788.7 148.6,-194.9 263.6,-416.6 331.8,-653.1 68.6,-237.3 82.6,-485.4 79.8,-728.2 -2.4,-243.2 -19.7,-485.1 -11.7,-724.4 5,-118.8 19.7,-237.5 55.9,-348.3 35.5,-110.4 97.2,-212.3 188.4,-278.8 90.1,-68.3 205.7,-97.2 322.6,-111.2 117.3,-13.9 239.7,-14.6 361.9,-30.9 241.8,-32.6 487.7,-90.1 698.4,-228.8 103.5,-69.2 196.7,-165.6 242,-287.2 46.9,-121.7 37.4,-254.5 6.1,-375.8 -36.6,-122.6 -106.1,-225.43 -154.5,-332.66 -48.4,-107.31 -79.5,-222.84 -90.1,-340.43 -22.3,-236.72 38.4,-473.99 122.6,-698.53 82.7,-226.35 182,-449.42 239.9,-687.19 28.4,-118.66 45.7,-240.82 43.7,-363.3 -1.5,-122.44 -23.8,-244.33 -63.6,-359.43 -79.6,-230.63 -229.6,-435.08 -423.5,-580.11 190.5,149.5 334.3,356.3 407.4,585.45 76.6,229.48 66.4,478.37 3.2,709.18 -60.6,232.75 -161.6,453.2 -248.1,680.09 -87.8,225.42 -154.8,469.42 -134.7,718.35 9.5,123.69 40.6,245.76 90.3,359.66 50.5,113.41 118,214.72 149.9,325.72 28.1,112 35.6,231.2 -6.1,337.1 -40,106.3 -122.8,192.6 -219.6,256.8 -196.4,128.6 -436.1,185.2 -671.4,215.4 -117.9,15.4 -238.4,15.4 -361.7,29.3 -121.8,14.2 -250.9,44 -355.9,122.9 -105.4,77.6 -173.8,194.3 -211.5,313.3 -38.5,120 -52.9,244.1 -57.6,366.8 -7.1,245 11.4,486.9 14.8,727.8 3.8,240.4 -9.1,481.6 -74.4,711.1 -65.8,229 -174.5,445.3 -316.6,637.4 -288,381.7 -707.4,664 -1171.7,788.1 -231.9,63.5 -472.8,100.1 -713.9,96.5 -240.4,-4.1 -483.8,-53.9 -696.5,-171.6" /></g><g
         transform="scale(1.90491)"
         id="g166"><path
           id="path168"
           style="fill:#061f33;fill-opacity:1;fill-rule:nonzero;stroke:none"
           d="m 16274.3,10508.6 c 25.7,-623.55 -118.9,-1091.87 -689.1,-1400.28 -454.2,-245.68 -998,-326.21 -1499.3,-338.6 -840.6,-20.69 -1777.3,196.07 -2406.1,786.6 -114.1,107.14 -223.7,238.49 -231.9,394.82 -7.5,142.16 70.7,276.06 77.6,418.16 11.6,239.7 -174.8,438.3 -258.1,663.4 -110.1,297.2 -35.3,629.1 63.6,930.3 98.8,301.2 222.6,605.2 207.7,921.9 -19.2,410.7 -266,769.3 -463.6,1129.8 -197.6,360.6 -353.2,799.3 -184.3,1174.2 111.3,247.1 376.6,437.1 647.8,467.1 286.4,31.8 543.8,-295.5 727.3,-475.8 246.9,-242.7 522.1,-456.7 818,-636.2 409.4,-248.5 858.7,-431.7 1243.7,-716.2 233,-172.3 482.9,-408.7 594.2,-683.1 125.3,-309.2 -94.2,-608.4 171.2,-892.8 171.2,-183.5 434.1,-245.9 641.1,-387.7 443.2,-303.6 520,-863.3 540.2,-1355.6" /></g><g
         transform="scale(1.47128)"
         id="g170"><path
           id="path172"
           style="fill:#efb126;fill-opacity:1;fill-rule:nonzero;stroke:none"
           d="m 15060.3,9088.37 c 764.2,1177.53 1239.7,2622.93 575.7,3952.53 -67.3,134.7 -148.2,281.8 -291.2,329.3 -307.4,102.3 -724.4,-7.6 -991.7,-164.5 -927.3,-544 -1494.6,-1567.8 -2015.5,-2478.6 -541.2,-946.34 -1011.2,-1931.4 -1555.1,-2876.16 -220.2,-382.73 -442.7,-770.48 -560.8,-1195.97 -103.5,-372.67 -114.9,-799.3 26.3,-1163.95 610.5,-1576.45 2289.2,354.59 2800.2,937.96 729.1,832.47 1410,1731.01 2012.1,2659.39" /></g><g
         transform="scale(2.01362)"
         id="g174"><path
           id="path176"
           style="fill:#ffc73c;fill-opacity:1;fill-rule:nonzero;stroke:none"
           d="m 16056.3,7603.13 c 160.5,679.62 243.7,1374.93 -120,1837.83 -164.3,209.08 -456.9,354.68 -696.4,458.18 -467.2,201.96 -944.7,473.36 -1444.7,561.36 -527.3,92.7 -1113.6,149.9 -1639,17.2 -333.8,-84.2 -646,-240.3 -944.4,-408.5 -259,-146.02 -576.7,-271.72 -702.4,-543.42 -304.6,-658.41 -574.95,-1345.29 -799.22,-2035.09 -187.63,-577.12 -393.57,-1182.1 -97.94,-1767.01 95.8,-189.52 234.95,-351.76 344.51,-532.83 122.05,-201.72 167.65,-391.18 183.55,-623.9 36.6,-530.88 22.3,-1063.36 20.9,-1594.99 -0.5,-153.25 1.5,-312.52 68.6,-450.23 132.3,-271.6 491.7,-275.38 750.6,-274.93 853.4,1.44 1706.8,2.93 2560.1,4.42 355.1,0.6 626.3,-42.86 959.7,-111.39 280.5,-57.66 521.3,83.93 655.9,344.95 127.4,247.07 137.1,535.65 150.8,813.31 53.1,1080.3 206.3,2155.67 457.1,3207.86 71,297.92 195.6,687.51 292.3,1097.18" /></g><g
         id="g178"><g
           clip-path="url(#clipPath184)"
           id="g180"><g
             transform="scale(1.7698)"
             id="g186"><path
               id="path188"
               style="fill:#efb126;fill-opacity:1;fill-rule:nonzero;stroke:none"
               d="m 16019.5,10899.9 c 228.6,384.4 280.5,864.8 -18.9,1235.2 -136.9,169.4 -379,188.4 -586,192.3 -407.6,7.6 -816,-35.7 -1212.9,-128.6 -378.2,-88.5 -763.9,-238.3 -927.8,-620.3 -121.7,-283.7 -79.2,-612 81.1,-871.6 145.7,-235.8 387.3,-410.3 657,-474.5 435.3,-103.6 944.9,-89.7 1360.3,84.7 260.2,109.2 493.6,324.3 647.2,582.8" /></g><g
             transform="scale(2.00043)"
             id="g190"><path
               id="path192"
               style="fill:#efb126;fill-opacity:1;fill-rule:nonzero;stroke:none"
               d="m 16466.5,4516.93 c -2.7,524.54 -5.3,1049.13 -8,1573.66 -0.9,182.61 117.6,1294.18 -166.4,1281.53 -30.7,-1.35 -58.7,-17.15 -83.7,-34.99 -141.3,-101.08 -213.9,-270.4 -280,-431.11 -207,-503.84 -380.9,-1310.47 -811.8,-1663.24 -438.1,-358.58 -1111.8,-509.74 -1656.1,-595.82 -635.8,-100.48 -1282,-107.93 -1924.4,-147.02 -415.6,-25.3 -874.1,-85.14 -1147.1,-399.47 -194.9,-224.45 -294.2,-560.98 -398.3,-835.22 -90.98,-239.7 -163.41,-524.39 21.2,-741.44 78.8,-92.63 188.1,-153.42 298.1,-205.31 401,-189.01 839.2,-284.28 1276.4,-357.42 1223.4,-204.81 2470.5,-247.35 3709.6,-188.31 264.9,12.65 552.2,39.04 747.6,218.35 145.4,133.47 214,329.83 262.6,521.09 166.1,651.51 163.7,1332.42 160.3,2004.72" /></g></g></g><g
         transform="scale(1.68205)"
         id="g194"><path
           id="path196"
           style="fill:#9b87ff;fill-opacity:1;fill-rule:nonzero;stroke:none"
           d="m 12615.9,16025.9 c -557.5,-573.6 -51.9,-1975 837.1,-1772.2 955.3,217.9 811.6,1706.6 -52.3,1951 -336.8,95.3 -605.4,5.8 -784.8,-178.8" /></g><g
         transform="scale(2.36137)"
         id="g198"><path
           id="path200"
           style="fill:#0b2d4e;fill-opacity:1;fill-rule:nonzero;stroke:none"
           d="m 14402.7,5793.24 c 108.2,-13.76 217.9,-21.3 327.7,-21.3 298.9,0 598.1,55.9 863.7,194.88 231.5,121.03 406.1,293.44 523.3,499.2 117.3,205.77 177.4,444.62 182.1,699 0.3,15.89 0.5,31.81 0.5,47.73 0,175.87 -18.5,354.67 -63.8,525.16 -45.2,170.5 -117.4,332.73 -224.8,474.64 -61.1,80.63 -131.8,152.75 -205.6,221.36 -110.6,102.86 -228,197.85 -330.6,300.16 -51.2,51.15 -98.8,104.09 -140.1,160.58 -41.3,56.54 -76.4,116.59 -103,182.19 -34.3,84.48 -52.8,181.33 -52.8,278.1 0,80.63 12.9,161.17 39.5,234.65 26.8,73.47 67.2,139.83 122.4,193.15 57,55.18 109.3,114.38 147.8,181.38 19.2,33.49 34.9,68.98 45.8,106.58 10.9,37.7 16.9,77.6 16.9,119.7 0,13.1 -0.6,26.4 -1.8,40 v 0 c -5.9,67.5 -22.8,134 -47.8,197.9 -37.6,95.7 -93.7,185.7 -160.6,265.3 -66.9,79.5 -144.5,148.6 -225.9,202.3 -157.3,104 -333,174.5 -514.3,224.8 -181.3,50.4 -368.4,80.6 -549,103.5 -60.2,7.7 -119.7,17.6 -176.1,32 -42.3,10.8 -82.8,24.1 -120.4,40.8 -56.4,25.1 -106.1,57.6 -146.7,100.5 -40.5,43 -72.2,96.6 -92.2,165.9 -19.4,67.4 -27.4,137.7 -31.3,209.7 -4,72.1 -3.9,145.8 -7.7,219.7 -16.2,310.7 -39,622.1 -85.6,931.2 -27.5,182.4 -100.2,360.3 -198.1,523.6 -98,163.3 -221.5,312.1 -351.7,436.1 -37.5,35.6 -76.4,69.7 -116.6,102.3 -201.5,163.2 -453.1,294.1 -726.7,384.5 -273.6,90.3 -569.2,140.1 -859,140.1 -194.7,0 -386.8,-22.5 -567.8,-70.4 -180.9,-47.9 -350.9,-121.4 -500.9,-223.5 -255.65,-173.9 -434.99,-440.4 -492.03,-745.4 -9.07,-48.4 -19.02,-86.3 -31.09,-116 -9.06,-22.4 -19.18,-40.2 -31.12,-55.3 -8.98,-11.4 -19.02,-21.3 -30.88,-30.6 -17.74,-13.9 -39.72,-26.2 -67.58,-38.2 -27.87,-12 -61.49,-23.6 -101.77,-36.2 -174.6,-54.2 -362.75,-100.9 -543.49,-166.9 -90.33,-33 -178.88,-70.8 -262.86,-117.1 -84.02,-46.2 -163.51,-100.8 -235.5,-167.3 -100.49,-92.9 -176.72,-206.7 -227.79,-330.8 -51.07,-124.1 -77.03,-258.6 -77.03,-393.2 0,-34.3 1.65,-68.6 5.04,-102.7 9.61,-96.9 33.92,-181.8 67.8,-258.5 25.41,-57.6 56.15,-110.7 89.99,-161.2 50.77,-75.7 108.41,-145.8 166.05,-217.4 57.67,-71.6 115.35,-144.7 166.89,-226.3 28.97,-45.9 49.51,-93.4 62.93,-142.1 13.42,-48.7 19.61,-98.6 19.61,-149.1 0.04,-107 -28.08,-216.6 -74.92,-320.3 -46.79,-103.6 -112.26,-201.2 -185.69,-283.7 -41.59,-46.8 -87.96,-90.9 -135.94,-134.5 -71.99,-65.54 -147.46,-129.87 -214.92,-201.36 -33.71,-35.74 -65.43,-73.3 -93.51,-113.74 -28.07,-40.49 -52.55,-83.85 -71.65,-131.03 -31.93,-78.77 -45.69,-161.43 -45.69,-244.35 0,-80.63 13,-161.56 34.94,-240.11 21.93,-78.6 52.89,-154.83 89.18,-226.18 22.19,-43.58 46.03,-85.67 68.9,-127.47 22.91,-41.84 44.85,-83.43 63.44,-125.95 51.58,-117.94 77.29,-246.93 77.29,-376 0.04,-153.6 -36.38,-307.24 -108.12,-442.5 l 56.11,-29.77 c 76.91,145.04 115.53,308.67 115.53,472.27 0,137.5 -27.32,275.05 -82.62,401.46 -19.82,45.39 -42.69,88.59 -65.9,130.98 -23.16,42.35 -46.67,83.89 -68.01,125.77 -34.6,68.1 -63.99,140.56 -84.65,214.45 -20.63,73.95 -32.57,149.24 -32.57,223.05 0.04,75.93 12.58,150.21 41.04,220.51 22.82,56.32 54.37,107.22 91.98,155.16 56.36,71.91 126.36,136.87 198.99,202.13 72.54,65.26 147.67,130.78 213.65,204.88 77.41,87.2 146.31,189.7 196.11,299.9 49.76,110.2 80.55,228.2 80.55,346.4 0,55.7 -6.86,111.4 -21.89,165.9 -15,54.6 -38.16,108.1 -70.47,159.2 -47.86,75.7 -100.11,143.5 -151.78,208.1 -77.58,97 -153.68,186.9 -213.14,285.9 -29.77,49.5 -55.43,101.2 -75.38,157.4 -19.94,56.1 -34.21,116.8 -40.91,184.4 -3.17,32 -4.78,64.2 -4.78,96.4 0,126.4 24.48,252.9 72.29,369 47.81,116.2 118.91,222.2 212.16,308.3 67.59,62.4 142.67,114.2 223.01,158.4 120.44,66.3 252.69,115.6 388.03,158.5 135.35,42.9 273.79,79.3 406.51,120.5 48.99,15.2 89.86,29.5 125.01,46.1 26.34,12.5 49.46,26.3 69.75,43 15.2,12.4 28.71,26.5 40.48,42.3 17.7,23.7 31.46,51.1 42.73,82.9 11.22,31.8 20.07,68.2 28.08,110.9 53.82,287.8 223.21,539.8 465.31,704.6 143.3,97.5 306.5,168.3 481.5,214.6 175,46.4 361.7,68.3 551.5,68.3 282.5,0 571.9,-48.7 839.1,-136.9 267.2,-88.2 512.3,-216.1 706.7,-373.6 38.8,-31.5 76.5,-64.5 112.7,-99 126.4,-120.2 246.4,-264.9 341,-422.7 94.7,-157.7 163.9,-328.4 189.7,-500.4 46.2,-305.9 68.9,-615.2 85,-925 3.8,-71.6 3.7,-145.4 7.7,-219.8 4.1,-74.5 12.5,-149.6 33.8,-223.8 19.9,-69.7 51.5,-127.5 91.6,-174.7 30.1,-35.5 64.9,-64.9 102.8,-89.5 56.9,-36.7 120.8,-62.3 187.7,-81.1 66.9,-18.7 136.8,-30.5 206.3,-39.4 179.2,-22.7 363.2,-52.6 540,-101.7 176.8,-49 346.1,-117.3 496.3,-216.6 101.3,-66.9 198,-160.6 271.5,-268.1 36.8,-53.7 67.8,-110.8 90.9,-169.8 23.1,-58.8 38.3,-119.4 43.7,-180.2 v 0 c 1,-11.7 1.5,-23.2 1.5,-34.4 0,-36 -5.1,-69.8 -14.4,-102 -14,-48.4 -37.5,-93.41 -68,-136.44 -30.4,-43.02 -67.8,-83.93 -108.8,-123.53 -63,-60.89 -108.3,-135.89 -137.9,-217.16 -29.5,-81.31 -43.3,-169.01 -43.3,-256.33 0.1,-104.82 19.9,-209.25 57.4,-301.95 38.5,-94.9 93,-178.2 156.3,-254.34 95.1,-114.21 209.9,-212.63 322.2,-311.64 112.5,-98.93 222.4,-198.36 309,-312.79 101.6,-134.2 170.5,-288.6 214.1,-452.61 43.6,-163.98 61.7,-337.43 61.7,-508.86 0,-15.54 -0.2,-31.04 -0.4,-46.54 -4.7,-245.2 -62.5,-473.28 -173.9,-668.72 -111.4,-195.44 -276.4,-358.61 -497.5,-474.38 -254.3,-133.15 -543.2,-187.69 -834.3,-187.65 -106.8,0 -214,7.33 -319.6,20.79 l -8.1,-63.01" /></g><g
         transform="scale(2.40267)"
         id="g202"><path
           id="path204"
           style="fill:#ffc73c;fill-opacity:1;fill-rule:nonzero;stroke:none"
           d="m 15267.9,5155.73 c 119.7,-215.8 238.5,-431.94 355.3,-649.45 236.9,-441.47 676.8,-1422.33 -27.5,-1664.65 -354.8,-122.07 -557.8,-2.7 -792.3,255.84 -887.4,977.96 -1644,2074.16 -2243.6,3250.43 -223.1,437.76 -815.7,1578.62 -96,1839.33 227.3,82.28 489.3,63.14 702.1,-51.36 97.4,-52.36 183.7,-122.86 266.1,-196.4 519.4,-463.24 889.3,-1060.95 1218.4,-1667.11 203.3,-374.62 411.6,-745.13 617.5,-1116.63" /></g><g
         transform="scale(1.72567)"
         id="g206"><path
           id="path208"
           style="fill:#f8a17a;fill-opacity:1;fill-rule:nonzero;stroke:none"
           d="m 15580.2,10977.6 c 298.3,95.7 544.1,281.2 636.2,576 83.6,267.6 -48.2,568.7 -71.6,838.6 -22.5,258.8 -25.5,519.1 -8.4,778.2 15.7,239.6 38.5,489.1 1.7,727.9 -20.9,136.4 -95.8,113.1 -233.9,167.3 -138,54.2 -292.9,54.8 -442.9,54.4 -307.2,-0.8 -1107.9,21.5 -1297.7,-248 -87.1,-123.8 -94,-279.5 -98.1,-426.7 -5,-177.9 -36.5,-408.2 -65.7,-656.3 -12.9,-110.6 -4.9,-220.6 -21.9,-330.3 -18.9,-122.9 -65.6,-240.6 -106.4,-358.3 -154.5,-445.1 -9.9,-868.3 471.5,-1072.1 345.2,-146.2 838.2,-178.7 1237.2,-50.7" /></g><g
         transform="scale(1.71227)"
         id="g210"><path
           id="path212"
           style="fill:#e5785c;fill-opacity:1;fill-rule:nonzero;stroke:none"
           d="m 16262.9,14007 c -21.1,137.6 -96.6,114.1 -235.8,168.7 -139.1,54.6 -295.2,55.2 -446.4,54.8 -309.6,-0.8 -1116.5,21.7 -1307.8,-249.9 -87.8,-124.8 -94.8,-281.7 -98.9,-430.1 -5,-179.3 -36.8,-411.4 -66.2,-661.5 -13.1,-111.3 -4.9,-222.2 -22,-332.8 -14.5,-94.3 -45.3,-185.6 -77.3,-276.1 300.1,-111.5 639,-136.3 952.1,-59.2 563.9,138.8 990.9,489.8 1295.5,946.1 1.6,35.5 2.6,71 4.9,106.5 15.9,241.4 39,492.9 1.9,733.5" /></g><g
         transform="scale(1.9599)"
         id="g214"><path
           id="path216"
           style="fill:#f8a17a;fill-opacity:1;fill-rule:nonzero;stroke:none"
           d="m 14600.7,13781.2 c -2.1,361.2 -52,703.8 -144.9,988.2 -400.9,1227.4 -1931.9,1530.6 -2853.9,649.6 -1028.1,-982.5 -634.7,-3331.6 448.3,-4156.8 289.5,-220.6 683,-298.1 1034.6,-203.8 1064.1,285.3 1522.7,1594.7 1515.9,2722.8" /></g><g
         transform="scale(1.80545)"
         id="g218"><path
           id="path220"
           style="fill:#f8a17a;fill-opacity:1;fill-rule:nonzero;stroke:none"
           d="m 15631.2,14927.2 c 511.4,279.6 668.8,-428.4 580.8,-780.7 -36.3,-145.5 -93.8,-287.4 -184.1,-407.1 -121.6,-161.3 -469.6,-428.8 -670,-252.4 -90.9,80.1 -100.4,216 -103.1,337.2 -7.6,324.8 29.9,913.5 376.4,1103" /></g><g
         transform="scale(1.74177)"
         id="g222"><path
           id="path224"
           style="fill:#8070f2;fill-opacity:1;fill-rule:nonzero;stroke:none"
           d="m 14476.3,13055.6 c -129.9,0 -260.7,9.6 -391.7,28.9 l 23.4,159 c 475.8,-70.2 950.2,-3.9 1372,191.6 114.6,53.1 211.7,108.9 296.9,170.5 154.9,112.3 287.8,258.8 384.4,424 l 138.7,-81.2 c -107.8,-184.2 -256.1,-347.7 -428.9,-472.9 -93.7,-67.8 -199.5,-128.8 -323.6,-186.2 -333.9,-154.8 -698.4,-233.7 -1071.2,-233.7" /></g><g
         transform="scale(1.5486)"
         id="g226"><path
           id="path228"
           style="fill:#8070f2;fill-opacity:1;fill-rule:nonzero;stroke:none"
           d="m 15318.9,15038 c 218,187 702.8,171 862.7,-23.2 118.4,-144 82.2,-326.7 -48.2,-448.4 -154.3,-144 -345.1,-135.6 -537.6,-92.2 -240.9,54.3 -539.6,338.3 -276.9,563.8" /></g><g
         transform="scale(1.96353)"
         id="g230"><path
           id="path232"
           style="fill:#e5785c;fill-opacity:1;fill-rule:nonzero;stroke:none"
           d="m 14576.1,14691.6 c -421.3,1289.8 -2030.3,1608.4 -2999.2,682.6 -214,-204.6 -368.5,-466 -471.3,-759.6 21.6,-33.4 45.8,-66.9 74.8,-100.5 132.8,-153.9 316.4,-254.6 501,-339.9 539.3,-249.3 1120.7,-395.6 1704.7,-505.1 43.1,-8 86.3,-16 129.5,-24.5 160.8,-31.7 320.4,-71.4 460.8,-154.1 396.9,-233.9 226.2,-748.6 517,-974.1 26.3,-20.4 52.9,-33.5 79.5,-42.9 107.4,384.1 157.7,792 155.4,1179.6 -2.2,379.6 -54.6,739.5 -152.2,1038.5" /></g><g
         transform="scale(1.97177)"
         id="g234"><path
           id="path236"
           style="fill:#0b2d4e;fill-opacity:1;fill-rule:nonzero;stroke:none"
           d="m 13500.6,13734.2 c 153,-56.7 303.6,-121 428.5,-224.6 353.1,-293.1 103.5,-771.8 353.6,-1039.7 221.5,-237.4 558,76.3 646.1,295.5 162.3,403.8 152.8,853.3 140.8,1288.3 -6.7,242.7 -13.9,488.8 -85,720.9 -77.6,253.1 -228.7,479 -408.7,673.2 -519.7,560.7 -1303.9,852.2 -2063.1,804.4 -593.8,-37.4 -1635.3,-536.3 -1169.9,-1292.2 106.2,-172.5 270.7,-300.6 438.6,-413.8 490.7,-330.8 1038.9,-566.9 1595.7,-767.3 41,-14.7 82.3,-29.4 123.4,-44.7" /></g><g
         transform="scale(1.89681)"
         id="g238"><path
           id="path240"
           style="fill:#9b87ff;fill-opacity:1;fill-rule:nonzero;stroke:none"
           d="m 15082.9,14400 c -687,-176.2 -952.5,-1470.4 -186.1,-1728 823.5,-276.9 1403.2,915.9 862.7,1500.3 -210.8,227.9 -455.5,284.4 -676.6,227.7" /></g><g
         transform="scale(1.86754)"
         id="g242"><path
           id="path244"
           style="fill:#8070f2;fill-opacity:1;fill-rule:nonzero;stroke:none"
           d="m 15548,14457 c -481.7,-77.4 -778.4,-1100.8 -282,-1382.4 533.4,-302.7 1034,608.6 720.2,1133.6 -122.4,204.6 -283.2,273.7 -438.2,248.8" /></g><g
         transform="scale(2.07532)"
         id="g246"><path
           id="path248"
           style="fill:#9b87ff;fill-opacity:1;fill-rule:nonzero;stroke:none"
           d="m 14078.8,13078.6 -167.4,19.4 c 113.6,981.7 65.1,2236.1 -810.5,2636.7 -414.7,189.7 -1602.3,400.2 -2124.9,-305.1 -62.8,-70.6 -104.9,-129.7 -104.9,-129.7 324.1,1000.1 1852.3,792.9 2299.9,588.1 967.8,-442.8 1027.9,-1772.1 907.8,-2809.4" /></g><g
         transform="scale(3.06624)"
         id="g250"><path
           id="path252"
           style="fill:#ffffff;fill-opacity:1;fill-rule:nonzero;stroke:none"
           d="M 0,2146.08 H 16300 V 3.88301 H 0 V 2146.08" /></g><g
         transform="scale(1.38986)"
         id="g254"><path
           id="path256"
           style="fill:#9b87ff;fill-opacity:1;fill-rule:nonzero;stroke:none"
           d="M 16300,5731.74 H 11182 V 4729.76 h 5118 v 1001.98" /></g><g
         transform="scale(1.06663)"
         id="g258"><path
           id="path260"
           style="fill:#9b87ff;fill-opacity:1;fill-rule:nonzero;stroke:none"
           d="m 15714.9,7341.99 -1683.1,8568.51 c -44.4,226.3 -242.8,389.5 -473.4,389.5 H 2369.69 c -162.02,0 -300.78,-80.1 -387.79,-198.9 l -1.48,1.4 -516.65,-610.8 458.35,100.5 1657.1,-8436.21 c 44.46,-226.33 242.87,-389.64 473.54,-389.64 H 15241.4 c 303.9,0 532.1,277.51 473.5,575.64" /></g><g
         transform="scale(1.02715)"
         id="g262"><path
           id="path264"
           style="fill:#0b2d4e;fill-opacity:1;fill-rule:nonzero;stroke:none"
           d="M 3677.31,6399.96 H 15296.1 c 315.5,0 552.6,288.08 491.7,597.67 L 14040,15895.5 c -46.1,235 -252.2,404.5 -491.7,404.5 H 1929.54 c -315.52,0 -552.54,-288.1 -491.73,-597.7 L 3185.58,6804.48 c 46.17,-235.02 252.19,-404.52 491.73,-404.52" /></g><path
         id="path266"
         style="fill:#9b87ff;fill-opacity:1;fill-rule:nonzero;stroke:none"
         d="m 7531.01,11884.5 c 110.09,-616.5 699.11,-1116.2 1315.6,-1116.2 616.49,0 1019.88,499.7 900.99,1116.2 -118.89,616.5 -707.91,1116.3 -1315.6,1116.3 -607.69,0 -1011.07,-499.8 -900.99,-1116.3" /><g
         transform="scale(2.60739)"
         id="g268"><path
           id="path270"
           style="fill:#ffffff;fill-opacity:1;fill-rule:nonzero;stroke:none"
           d="m 16032.4,4613.84 c 50.4,104.28 41.4,213.9 9.6,313.31 -30.6,101.63 -85.2,189.19 -144.2,284.88 -59.8,94.35 -120.7,197.21 -158.1,321.05 -37.8,125.22 -27,265.63 7.8,384.36 75.2,242.24 229.2,420.77 335.2,603.37 53.2,92.43 96.7,186.28 113.9,290.13 19.3,102.87 12.7,212.44 -37.9,315.72 87.6,-76.63 130.1,-200.93 135.8,-321.24 5.5,-121.54 -25.2,-244.92 -71.8,-353.34 -92.1,-219.95 -230.1,-398.52 -283.8,-591.63 -30.4,-95.57 -37.9,-188.15 -16.3,-280.85 18.1,-95 67.7,-190.92 112.5,-294.93 47.4,-101.56 92.7,-218.92 102.8,-339.61 10.3,-118.9 -16.9,-253.32 -105.5,-331.22" /></g><g
         transform="scale(2.6809)"
         id="g272"><path
           id="path274"
           style="fill:#9b87ff;fill-opacity:1;fill-rule:nonzero;stroke:none"
           d="M 15951.1,2462.95 H 15326 c -192.7,0 -348.9,156.21 -348.9,348.91 V 4357.84 H 16300 V 2811.86 c 0,-192.7 -156.2,-348.91 -348.9,-348.91" /></g><g
         transform="scale(2.79056)"
         id="g276"><path
           id="path278"
           style="fill:#9b87ff;fill-opacity:1;fill-rule:nonzero;stroke:none"
           d="m 15748.2,2854.66 c -196.1,0 -355,161.3 -355,360.25 0,198.96 158.9,360.25 355,360.25 196.1,0 355,-161.29 355,-360.25 0,-198.95 -158.9,-360.25 -355,-360.25 z m 0,920.18 c -304.8,0 -551.8,-250.67 -551.8,-559.93 0,-309.22 247,-559.92 551.8,-559.92 304.8,0 551.8,250.7 551.8,559.92 0,309.26 -247,559.93 -551.8,559.93" /></g><g
         transform="scale(2.50761)"
         id="g280"><path
           id="path282"
           style="fill:#af9fff;fill-opacity:1;fill-rule:nonzero;stroke:none"
           d="m 16223.5,3402.08 c -42,0 -76.4,34.42 -76.4,76.45 v 985.91 c 0,42.08 34.4,76.49 76.4,76.49 42.1,0 76.5,-34.41 76.5,-76.49 v -985.91 c 0,-42.03 -34.4,-76.45 -76.5,-76.45" /></g><g
         transform="scale(2.6809)"
         id="g284"><path
           id="path286"
           style="fill:#8070f2;fill-opacity:1;fill-rule:nonzero;stroke:none"
           d="M 15994.5,4357.84 V 2797.95 c 0,-185.02 -150,-335.04 -335,-335.04 h 305.5 c 185,0 335,150.02 335,335.04 v 1559.89 h -305.5" /></g><g
         transform="scale(2.92874)"
         id="g288"><path
           id="path290"
           style="fill:#8070f2;fill-opacity:1;fill-rule:nonzero;stroke:none"
           d="m 11764.5,10319 h 4109.7 c 234.2,0 425.8,191.7 425.8,425.9 v 2160.9 c 0,234.2 -191.6,425.9 -425.8,425.9 h -4109.7 c -234.2,0 -425.8,-191.7 -425.8,-425.9 v -2160.9 c 0,-234.2 191.6,-425.9 425.8,-425.9" /></g><g
         transform="scale(2.34946)"
         id="g292"><path
           id="path294"
           style="fill:#8070f2;fill-opacity:1;fill-rule:nonzero;stroke:none"
           d="m 14948.4,11874.7 v 1725.8 l 1351.6,-737.2 -1351.6,-988.6" /></g><g
         transform="scale(2.61438)"
         id="g296"><path
           id="path298"
           style="fill:#e1f4fd;fill-opacity:1;fill-rule:nonzero;stroke:none"
           d="m 16152.8,13095.3 h -2456.9 c -81,0 -147.3,66.2 -147.3,147.2 0,81 66.3,147.2 147.3,147.2 h 2456.9 c 81,0 147.2,-66.2 147.2,-147.2 0,-81 -66.2,-147.2 -147.2,-147.2" /></g><g
         transform="scale(2.79296)"
         id="g300"><path
           id="path302"
           style="fill:#e1f4fd;fill-opacity:1;fill-rule:nonzero;stroke:none"
           d="m 16162.2,12258 h -568.5 c -75.8,0 -137.8,62 -137.8,137.8 0,75.8 62,137.8 137.8,137.8 h 568.5 c 75.8,0 137.8,-62 137.8,-137.8 v 0 c 0,-75.8 -62,-137.8 -137.8,-137.8" /></g><g
         transform="scale(2.79296)"
         id="g304"><path
           id="path306"
           style="fill:#e1f4fd;fill-opacity:1;fill-rule:nonzero;stroke:none"
           d="m 13862.4,13159.5 h 2299.8 c 75.8,0 137.8,-62 137.8,-137.8 0,-75.8 -62,-137.8 -137.8,-137.8 h -2299.8 c -75.8,0 -137.8,62 -137.8,137.8 0,75.8 62,137.8 137.8,137.8" /></g><g
         transform="scale(2.31772)"
         id="g308"><path
           id="path310"
           style="fill:#e1f4fd;fill-opacity:1;fill-rule:nonzero;stroke:none"
           d="m 15448.9,15857.8 h 685 c 91.4,0 166.1,-74.7 166.1,-166.1 0,-91.3 -74.7,-166 -166.1,-166 h -685 c -91.3,0 -166.1,74.7 -166.1,166 0,91.4 74.8,166.1 166.1,166.1" /></g><g
         transform="scale(2.48302)"
         id="g312"><path
           id="path314"
           style="fill:#e1f4fd;fill-opacity:1;fill-rule:nonzero;stroke:none"
           d="m 16145,13144.4 h -1724.6 c -85.2,0 -155,69.8 -155,155 0,85.3 69.8,155 155,155 H 16145 c 85.2,0 155,-69.7 155,-155 0,-85.2 -69.8,-155 -155,-155" /></g><g
         transform="scale(2.36242)"
         id="g316"><path
           id="path318"
           style="fill:#ffc73c;fill-opacity:1;fill-rule:nonzero;stroke:none"
           d="m 12004.8,3675.97 c 61.7,10.54 123.3,20.7 185.2,30.39 300.5,47.16 599.8,103.12 897.5,167.84 589.4,128.18 1182.3,238.23 1782.4,295.08 63.5,6.01 127.2,11.43 190.9,16.25 269,20.32 550.8,26.92 797.1,-101.67 246.2,-128.64 442.1,-432.95 381.9,-726.33 -42.2,-206.11 -199.8,-361.24 -374.9,-439.42 -175.1,-78.19 -367.9,-91.81 -557.1,-104.56 -612.6,-41.22 -1225.2,-82.45 -1837.9,-123.68 -303.3,-20.24 -606.6,-41.23 -909.9,-62.31 -289.6,-20.11 -583.7,-61.04 -874.1,-60.75 -122.9,0.13 -260,23.16 -363.2,105.15 -143.5,113.95 -229.9,356.54 -243.8,546.13 -7.2,98.46 12,217.96 87.4,278.91 40.4,32.6 91.7,42.59 141.1,51.65 232.8,42.88 464.5,87.58 697.4,127.32" /></g><g
         transform="scale(1.68108)"
         id="g320"><path
           id="path322"
           style="fill:#f8a17a;fill-opacity:1;fill-rule:nonzero;stroke:none"
           d="m 15904.6,3853.95 c -208.2,-42.95 -370.9,-225.74 -578.1,-287.01 -147.9,-43.67 -306.2,-20.35 -448.3,32.95 -130.6,49.02 -263.4,75.19 -397.6,118.14 -104.5,33.49 -245.6,103.98 -357.9,80.6 -294.3,-61.27 -587.8,-270.72 -854.6,-406.64 -59.9,-30.58 -125.7,-62.1 -191.8,-49.55 -66.1,12.55 -121.3,92.73 -83.6,148.59 -76.8,-71.74 -178.4,-215.1 -302.2,-159.48 -50.6,22.73 -81.2,89.82 -53.1,137.71 -42.6,-46.69 -87.3,-94.88 -146,-118.08 -58.8,-23.2 -135.8,-13.09 -170.5,39.74 -16.2,24.86 -21.1,55.44 -22.6,85.12 -5.1,102.14 25.7,203.08 68.3,296.06 210.1,458.52 685.3,798.71 1089.6,1071.87 71.5,48.3 144.3,97.32 226.9,122.54 73.8,22.55 152.2,25.05 229.4,25.4 501.4,2.26 1003,-78.75 1478.1,-238.83 102.8,-34.62 216,-5.18 318.5,14.04 75.9,14.21 155.2,28.31 229.3,6.66 82.9,-24.21 147.2,-89.94 197.7,-160.02 92.9,-128.9 163.9,-299.51 152.8,-461.43 -8.4,-122.95 -17.7,-255.55 -162.4,-281.36 -58.6,-10.47 -118.9,-3.99 -178.2,-10.18 -14.8,-1.54 -29.4,-3.86 -43.7,-6.84" /></g></g></g></svg>