<?xml version="1.0" encoding="UTF-8" standalone="no"?>
<svg
   xmlns:dc="http://purl.org/dc/elements/1.1/"
   xmlns:cc="http://creativecommons.org/ns#"
   xmlns:rdf="http://www.w3.org/1999/02/22-rdf-syntax-ns#"
   xmlns:svg="http://www.w3.org/2000/svg"
   xmlns="http://www.w3.org/2000/svg"
   viewBox="0 0 3759.3201 2133.3333"
   height="2133.3333"
   width="3759.3201"
   xml:space="preserve"
   id="svg2"
   version="1.1"><metadata
     id="metadata8"><rdf:RDF><cc:Work
         rdf:about=""><dc:format>image/svg+xml</dc:format><dc:type
           rdf:resource="http://purl.org/dc/dcmitype/StillImage" /></cc:Work></rdf:RDF></metadata><defs
     id="defs6"><clipPath
       id="clipPath196"
       clipPathUnits="userSpaceOnUse"><path
         id="path194"
         d="m 22029.6,11485.6 c -130.7,0.7 -257.5,17.5 -347,145.7 -175.6,251.5 -443.7,477.3 -744.4,221.5 -173.4,-147.5 -43,-451 -192.2,-596.9 -132,-129.1 -299.8,-107.8 -367.3,-322.1 -99.3,-315.2 213.6,-591.4 314.1,-864 84.3,-228.7 -105.3,-315.87 -190.5,-494.12 -65.7,-137.41 -31.9,-284.6 39.6,-415.97 126.3,-231.64 406,-418.15 341.2,-718.1 -54.1,-250.35 -104.4,-473.46 116.5,-663.19 151.4,-130.06 432.4,-248.59 411,-489.32 -7.6,-85.19 -66.6,-157.79 -82.7,-241.77 -25.6,-132.92 60.5,-262.27 160.5,-353.49 227.5,-207.57 427.3,-403.32 597.7,-664.47 72.8,-111.57 364.3,-363.57 247.8,-516.17 211.8,277.4 435.6,546.28 628,837.82 158.3,239.77 396.8,590.47 234.4,885.79 -50.5,91.84 -144.4,160.3 -170.2,261.93 -46.4,183.51 133.9,353.64 200.9,509.76 105.3,245.13 28,529.81 -157.4,713.82 -87.7,87.05 -182.8,182.78 -195.7,305.7 -14.1,134.2 70.1,259.34 108.2,383.13 35.2,114.12 57.1,235.46 70,354 9.1,83.7 12.6,169.36 -7.1,251.25 -37.5,155.7 -177.7,242.2 -281.4,352.7 -247.1,263 -117.2,572.2 -225.2,877.8 -86.3,244.5 -262.8,241.8 -442.7,239.2 -22.1,-0.3 -44.2,-0.7 -66.1,-0.5" /></clipPath><clipPath
       id="clipPath236"
       clipPathUnits="userSpaceOnUse"><path
         id="path234"
         d="m 23633.9,9569.11 c 94.9,-17.53 189.2,-22.89 271.8,57.68 162.3,158.15 388,284.85 570.7,57.69 105.4,-131.02 -31.2,-333.12 56.8,-459.66 77.9,-111.91 202.6,-119.66 221.9,-284.43 28.4,-242.4 -236.9,-399.42 -347.5,-583.23 -92.8,-154.26 32.7,-243.73 69.8,-384.82 28.6,-108.76 -16.2,-210.86 -86.3,-296.25 -123.6,-150.56 -352.4,-247.11 -346.9,-473.67 4.6,-189.07 10.2,-357.87 -176.3,-464.93 -127.8,-73.38 -348,-120.46 -365.8,-298.06 -6.3,-62.84 26.4,-123.67 26.5,-186.82 0.2,-99.96 -80.2,-181.87 -165.4,-234.2 -193.7,-119.11 -365.7,-233.41 -525.5,-399.21 -68.2,-70.9 -314.6,-213.3 -251.2,-340.1 -115.2,230.5 -240.3,456.5 -339.6,694.6 -81.6,195.83 -206.1,483.24 -47.4,674.97 49.3,59.64 127,96.29 159.7,166.45 59.1,126.68 -48.1,275.04 -75.1,397.58 -42.4,192.37 53,388.18 212.9,495.98 75.7,51.02 158,107.29 184.3,194.66 28.8,95.4 -14.9,197.82 -25.5,292.89 -9.7,87.66 -8.8,178.71 -1.7,266.48 5,61.97 14.3,124.58 39.9,181.24 48.7,107.75 162.4,151.12 253,216.89 215.6,156.57 164.2,398.86 284.8,605.62 108.2,185.62 255.8,129.68 402.1,102.65" /></clipPath></defs><g
     transform="matrix(1.3333333,0,0,-1.3333333,0,2133.3333)"
     id="g10"><g
       transform="scale(0.1)"
       id="g12"><g
         transform="scale(1.72975)"
         id="g14"><path
           id="path16"
           style="fill:#ffffff;fill-opacity:1;fill-rule:nonzero;stroke:none"
           d="M 16300,0 H 0 V 9249.9 H 16300 V 0" /></g><g
         transform="scale(1.30338)"
         id="g18"><path
           id="path20"
           style="fill:#f5f5fe;fill-opacity:1;fill-rule:nonzero;stroke:none"
           d="m 16300,5590.86 c 0,-2989.24 -2423.3,-5412.553 -5412.5,-5412.553 -2989.35,0 -5412.61,2423.313 -5412.61,5412.553 0,2989.27 2423.26,5412.54 5412.61,5412.54 2989.2,0 5412.5,-2423.27 5412.5,-5412.54" /></g><path
         id="path22"
         style="fill:#f8a17a;fill-opacity:1;fill-rule:nonzero;stroke:none"
         d="m 12374.7,4380.3 c -483.2,112.8 -939.1,326.8 -1430.5,407.4 -310.7,50.8 -877.9,130.7 -1042.92,-211.8 -82.88,-172 -44.25,-386.2 73.72,-532.9 264.6,-329.1 816.4,-417 1204.1,-499.7 619.2,-132 1247,-157.7 1878.1,-138.5 178.2,5.4 364.5,17.7 517.1,109.7 152.7,92.1 257,289.3 186.3,453 -107.8,249.5 -506.8,245.2 -734.5,282.9 -218.5,36.2 -435.8,79.5 -651.4,129.9" /><path
         id="path24"
         style="fill:#f8a17a;fill-opacity:1;fill-rule:nonzero;stroke:none"
         d="m 12920,6530.62 c -362.2,-420 -755.5,-814.52 -1136.2,-1217.72 -78.5,-83.2 -157.1,-166.5 -232.4,-252.7 -37.5,-42.9 -81.5,-86.4 -112.3,-134.4 -25.4,-39.3 -81.3,-117.4 -130.3,-227.4 -453.5,135.3 -993.2,-15.1 -1428.17,-173.5 50,340.6 196.37,600.6 234.77,687.5 190.9,432.4 554.7,950.62 849.2,1314.78 357.1,441.51 437.9,772.36 897.4,1106.38 504.1,366.44 875.2,841.67 1338.2,503.22 356.2,-260.47 195.5,-787.25 50.3,-1119.37 -77.6,-177.36 -199.5,-334.89 -330.5,-486.79" /><path
         id="path26"
         style="fill:#8070f2;fill-opacity:1;fill-rule:nonzero;stroke:none"
         d="m 11296.6,7197.87 c 372.3,492.8 824.4,918.66 1439.9,1028.15 176.3,31.36 385.8,14.39 493.1,-128.94 67.3,-89.82 78.3,-212.04 55.1,-321.85 -33.6,-159.19 -128.9,-300.82 -189.2,-450.84 -160.5,-399.65 -543.5,-706.38 -624.2,-1129.55 -66.8,-350.44 -499.5,-844.74 -477.6,-870.34 -179.3,209.5 -438.3,408.5 -667.1,562.2 -60.9,40.9 -612,436.89 -635,400.59 184.8,291.36 380.4,613.16 605,910.58" /><g
         transform="scale(1.13133)"
         id="g28"><path
           id="path30"
           style="fill:#f8a17a;fill-opacity:1;fill-rule:nonzero;stroke:none"
           d="m 14040.4,3871.81 c 427.2,99.71 830.1,288.87 1264.5,360.11 274.5,44.9 776,115.52 921.8,-187.22 73.3,-152.03 39.1,-341.36 -65.1,-471.03 -234,-290.9 -721.7,-368.6 -1064.4,-441.7 -547.4,-116.67 -1102.2,-139.39 -1660,-122.42 -157.5,4.77 -322.2,15.65 -457.2,96.97 -135,81.41 -227.1,255.71 -164.6,400.41 95.3,220.54 448,216.74 649.3,250.06 193,32 385.1,70.27 575.7,114.82" /></g><g
         transform="scale(1.12751)"
         id="g32"><path
           id="path34"
           style="fill:#f8a17a;fill-opacity:1;fill-rule:nonzero;stroke:none"
           d="m 13604.3,5792.08 c 321.4,-372.51 670.1,-722.41 1007.7,-1080.01 69.7,-73.79 139.5,-147.67 206.2,-224.13 33.3,-38.04 72.2,-76.62 99.6,-119.2 22.5,-34.85 72.1,-104.12 115.6,-201.68 402.1,120 880.8,-13.39 1266.6,-153.88 -44.3,302.08 -174.2,532.68 -208.2,609.75 -169.3,383.5 -491.9,843.12 -753.2,1166.09 -316.7,391.59 -388.3,685.02 -795.8,981.27 -447.1,324.99 -776.3,746.48 -1186.9,446.31 -316,-231.02 -173.4,-698.22 -44.6,-992.78 68.8,-157.31 176.8,-297.02 293,-431.74" /></g><g
         transform="scale(1.07775)"
         id="g36"><path
           id="path38"
           style="fill:#8070f2;fill-opacity:1;fill-rule:nonzero;stroke:none"
           d="m 15738.6,6678.58 c -345.3,457.25 -764.9,852.38 -1335.9,953.97 -163.7,29.1 -357.9,13.35 -457.6,-119.63 -62.4,-83.34 -72.6,-196.75 -51.1,-298.63 31.2,-147.71 119.7,-279.12 175.5,-418.32 148.9,-370.81 504.4,-655.42 579.2,-1048.06 62,-325.15 463.6,-783.79 443.2,-807.55 166.3,194.39 406.6,379.03 619,521.64 56.4,37.95 567.8,405.37 589.1,371.69 -171.5,270.34 -352.9,568.93 -561.4,844.89" /></g><g
         transform="scale(1.0004)"
         id="g40"><path
           id="path42"
           style="fill:#9b87ff;fill-opacity:1;fill-rule:nonzero;stroke:none"
           d="m 16228.1,2855.96 c -3.9,16.2 -7.7,32.39 -11.5,48.48 -139.7,604.96 -160.1,1229.41 -142.6,1847.77 17.1,606.35 152.1,1202.92 169.6,1809.6 20.2,699.51 -101.6,1693.32 -977.1,1774.16 -362,33.4 -726.1,72.43 -1090.9,76.76 v 0.84 c -12.9,0.04 -25.8,-0.35 -38.8,-0.42 -13,0.07 -26,0.46 -39,0.42 v -0.84 c -364.7,-4.33 -728.8,-43.36 -1090.9,-76.76 -875.4,-80.84 -997.3,-1074.65 -977.1,-1774.16 17.5,-606.68 152.5,-1203.25 169.7,-1809.6 17.5,-618.36 -3,-1242.81 -142.7,-1847.77 -3.8,-16.09 -7.6,-32.28 -11.5,-48.48 -27.4,-113.66 -71.8,-229.01 -51,-344.06 44.9,-248.7 643.9,-369.36 845.7,-422.93 376.4,-99.86 765.1,-144.44 1152.7,-173.03 35.3,-2.6 69.9,-5.1 104.3,-7.5 v -5.4 c 13.1,0.8 26.5,1.8 39.8,2.7 13.2,-0.9 26.6,-1.9 39.6,-2.7 v 5.4 c 34.4,2.4 69.1,4.9 104.4,7.5 387.6,28.59 776.2,73.17 1152.6,173.03 201.9,53.57 800.8,174.23 845.8,422.93 20.8,115.05 -23.6,230.4 -51.1,344.06" /></g><path
         id="path44"
         style="fill:#f8a17a;fill-opacity:1;fill-rule:nonzero;stroke:none"
         d="m 13578.8,7754.98 c 540.8,-357.01 1593.6,-80.19 1295.2,627.83 -36.2,85.94 -80.2,169.08 -104.3,258.69 -40,148.74 -36.1,301.96 -32,453.3 4.9,176.64 6.3,353.73 15.9,530.08 -197.7,36.95 -358,55.49 -568,47.82 -173.7,-6.35 -347.3,9.7 -520.9,0.68 -14,-0.73 -29.2,-1.99 -39.1,-10.19 -9.9,-8.25 -11.7,-21.2 -12.9,-33.14 -23.3,-238.48 -0.4,-480.02 -18.7,-718.96 -10.2,-133.66 -28.4,-286.56 -89.5,-410.59 -93.9,-190.76 -233.6,-367.93 -99,-575.01 44,-67.78 103.5,-124.41 173.3,-170.51" /><path
         id="path46"
         style="fill:#e5785c;fill-opacity:1;fill-rule:nonzero;stroke:none"
         d="m 14761.7,8673.65 c -31.2,138.23 -23,283.08 -19.2,423.13 4.9,176.63 6.3,353.73 16,530.08 -197.7,36.95 -358.1,55.48 -568.1,47.82 -173.7,-6.35 -347.3,9.7 -520.9,0.68 -14,-0.73 -29.2,-2 -39.1,-10.19 -9.9,-8.25 -11.7,-21.2 -12.9,-33.13 -23.3,-238.49 -0.4,-480.03 -18.6,-718.97 -5.3,-68.43 -14.9,-136.86 -29.2,-204.35 27.3,-21.1 55,-41.35 83.6,-60.01 214.4,-140.22 503.5,-186.8 760.1,-122.44 130.5,32.73 242.9,81.19 348.3,147.38" /><path
         id="path48"
         style="fill:#0b2d4e;fill-opacity:1;fill-rule:nonzero;stroke:none"
         d="m 15101.3,9442.52 c -164,-197.89 -393.6,-328.24 -621.1,-447.72 -55.9,-29.33 -112.6,-58.54 -174,-72.88 -188.4,-44 -378.6,58.08 -535.7,170.94 -217,155.9 -413.7,340.14 -583.5,546.39 -171,207.54 -266.6,434.35 -378,678.55 -112.3,245.9 -136.8,493 -113.2,761.8 24.3,276 -130,522.6 -60.3,801.6 44.3,177.2 152.3,337.9 299.7,445.8 80.7,59.1 174.4,103.2 273.9,114 222.4,24.2 411.5,-127 631.3,-137.4 221.8,-10.4 435.2,70.3 648.3,118.8 186.2,42.5 390.1,65.7 574.9,2.5 205.6,-70.4 304.6,-227.7 418.3,-409.8 97.2,-155.6 243.5,-272.4 360.4,-410.5 156.7,-185.1 206.1,-420.7 156.4,-661.8 -42.1,-203.8 -121.3,-413.1 -225,-593.8 -90.4,-157.3 -188.6,-323 -294.9,-472.18 -81,-113.5 -169.7,-197.16 -264.3,-296.2 -41,-42.94 -75,-91.95 -113.2,-138.1" /><path
         id="path50"
         style="fill:#f8a17a;fill-opacity:1;fill-rule:nonzero;stroke:none"
         d="m 15302.7,10389.3 c -3.6,226.4 -37,440.9 -97,618.7 -259.1,767.2 -1221.1,947.7 -1793.8,389.5 -638.6,-622.5 -377.2,-2093.12 307.1,-2603.82 182.9,-136.54 430.2,-182.7 650.1,-121.37 665.4,185.58 944.8,1009.53 933.6,1716.99" /><path
         id="path52"
         style="fill:#e5785c;fill-opacity:1;fill-rule:nonzero;stroke:none"
         d="m 15459.9,11010.5 c -291.5,766.9 -1377.1,946.2 -2024.2,387.3 -151.3,-130.8 -312.5,-336.4 -382.8,-524.6 -75.2,-201.7 -55.5,-424.6 -34.7,-638.8 16.2,176.8 99,335.8 215.1,467.7 57.3,65.1 121.5,123.8 188.8,178.3 24.4,19.8 207.9,186.5 190.3,209.4 65.3,-85 130,-169.5 230.6,-212.2 125.8,-53.4 256.6,-84.3 389.5,-113.2 234.9,-51 418.9,-117.1 589.4,-292.9 157.6,-162.6 271.7,-364.6 347.5,-577.02 24,-67.12 64.8,-170.48 152.6,-140.32 20.8,7.13 201.5,141.85 203.4,151.23 31.7,162.41 45.8,327.41 43.2,486.51 -3.8,226.4 -41.2,440.9 -108.7,618.6" /><path
         id="path54"
         style="fill:#0b2d4e;fill-opacity:1;fill-rule:nonzero;stroke:none"
         d="m 14940.3,10542.4 c 58.5,-95.6 94.4,-203.1 129.7,-309.6 55.8,-168.3 99.9,-349.27 171.6,-510.85 244.2,147.36 405.1,494.85 516.3,746.15 98.7,223 126.3,400.2 42.8,634.1 -54,151.1 -157.5,285.5 -280.4,400.6 -354.8,332.5 -887,501.9 -1400.3,468.1 -180.2,-11.8 -327.3,-75.3 -496.6,-124.4 -155.4,-45.1 -274.3,-74.6 -388.5,-202.5 -101.6,-113.8 -166.7,-255.5 -217.9,-399.2 -83.3,-234.4 -130.5,-476 -112.1,-725 11.7,-159.2 12.8,-316.8 170.5,-403.5 -2.8,94.8 -5.5,189.6 -8.3,284.4 -1.3,45.3 -2.6,91 5.1,135.8 6.8,39.9 20.7,78.2 34.4,116.3 42.1,116.2 80.7,209.2 160.5,305 104.3,125.1 241.9,238.4 271.1,398.7 246.9,-239.9 538.2,-390.2 862.7,-501.9 205.7,-70.8 414.9,-111.6 537,-308.3 0.8,-1.2 1.6,-2.5 2.4,-3.9" /><path
         id="path56"
         style="fill:#f8a17a;fill-opacity:1;fill-rule:nonzero;stroke:none"
         d="m 15307.3,10369 c 293.7,164.4 388.7,-243.6 339.9,-447.68 -20.1,-84.25 -52.5,-166.58 -104,-236.26 -69.3,-93.85 -268.8,-250.36 -385.6,-149.61 -53,45.72 -59.2,124.22 -61.5,194.18 -6.2,187.57 12,527.87 211.2,639.37" /><path
         id="path58"
         style="fill:#f8a17a;fill-opacity:1;fill-rule:nonzero;stroke:none"
         d="m 13184.1,10369 c -293.8,164.4 -388.8,-243.6 -340,-447.68 20.2,-84.25 52.6,-166.58 104,-236.26 69.4,-93.85 268.8,-250.36 385.6,-149.61 53,45.72 59.2,124.22 61.5,194.18 6.2,187.57 -12,527.87 -211.1,639.37" /><path
         id="path60"
         style="fill:#0b2d4e;fill-opacity:1;fill-rule:nonzero;stroke:none"
         d="m 15739.3,10369.6 -28.6,19.4 17.8,26.1 c 163.6,239.9 468.2,686.4 312.7,983.4 -52.9,101.3 -145.9,163.8 -244.3,229.9 -83,55.7 -168.8,113.4 -229.2,196.7 -48,66.3 -76.7,144.6 -104.4,220.4 -17.4,47.4 -35.4,96.4 -57.8,141.4 -131.8,264.9 -423.5,393.5 -743.1,327.5 -103.8,-21.5 -209.1,-66.1 -320.5,-113.3 -203.9,-86.3 -414.8,-175.6 -624.6,-118.2 -72.5,19.9 -139.6,58.7 -204.4,96.2 -63.2,36.6 -128.5,74.4 -198.7,94.4 -146.9,42 -310.8,19.3 -449.5,-62.2 -183,-107.4 -310.9,-305.2 -334,-516 -21,-191.1 16,-373.7 106.7,-528 11,-18.7 22.6,-37.4 34.3,-56.1 53.5,-85.8 108.7,-174.5 110.9,-277.1 l -34.6,-0.7 c -1.9,93.1 -54.6,177.7 -105.6,259.5 -11.8,19 -23.6,37.9 -34.8,56.9 -94.5,160.8 -133,350.7 -111.3,549.2 24.3,221.5 158.7,429.2 350.9,542.1 146.9,86.2 320.5,110.2 476.5,65.6 74.3,-21.2 141.5,-60.1 206.5,-97.7 65.8,-38.1 128,-74.1 196.3,-92.8 198.1,-54.3 403.4,32.7 601.9,116.7 108.1,45.8 219.9,93.1 327,115.3 335.8,69.2 642,-66.5 781,-345.9 23.3,-46.7 41.6,-96.6 59.3,-144.9 28.1,-77 54.7,-149.6 100,-212 56.7,-78.4 140,-134.3 220.5,-188.4 97.6,-65.6 198.6,-133.4 255.7,-242.4 165,-315.5 -135.4,-755.9 -314.9,-1019 l -17.7,-26" /><path
         id="path62"
         style="fill:#73b8d4;fill-opacity:1;fill-rule:nonzero;stroke:none"
         d="m 13509.5,11970.2 c 244.5,-15.8 482.5,37.1 721.2,85.8 120.4,22.3 242.7,33.2 365.1,37.1 61.2,1.8 122.5,1.5 183.7,-0.9 60.9,-2.7 123,-5.5 184.6,-18.3 123.1,-25.1 239.3,-91.6 315.4,-195.6 38.2,-54.2 49,-121 53.1,-182 4.3,-61.5 2.6,-121.8 15.1,-179.1 10.6,-57.9 41.1,-108.4 77.4,-156.5 36,-48.1 76.8,-95.1 104.7,-151.4 27.4,-56.5 38.8,-118.6 42,-179.6 3.4,-61.3 -1.3,-122.2 -6.7,-182.7 1,60.8 2,121.8 -4.1,181.9 -6.1,59.9 -20.3,119.3 -48.9,171.3 -28.2,52.2 -69,96.9 -107.3,144.8 -38.2,47.2 -74.2,102.8 -87.5,165.2 -15.7,61.6 -15.3,124.1 -19.7,183.6 -4.6,59.2 -15.3,117.6 -48.7,163.7 -15.6,23 -36.3,43.9 -58.7,63.2 -22.1,19.3 -45.7,36.7 -70.7,51.8 -50.2,30 -106,49.7 -163.7,61.7 -57.6,12.6 -117.5,16 -178,19.3 -60.3,3 -120.7,3.9 -181.1,2.7 -120.8,-2 -241.3,-13.7 -360.9,-30.9 -119.1,-18.8 -239.6,-43.8 -360.9,-56.1 -121.5,-11.7 -244.5,-14.9 -365.4,1" /><g
         transform="scale(1.51717)"
         id="g64"><path
           id="path66"
           style="fill:#dbcdfe;fill-opacity:1;fill-rule:nonzero;stroke:none"
           d="M 16050.3,1751.36 H 2511.69 c -137.92,0 -249.72,106.58 -249.72,238.01 0,131.49 111.8,238.07 249.72,238.07 H 16050.3 c 137.9,0 249.7,-106.58 249.7,-238.07 0,-131.43 -111.8,-238.01 -249.7,-238.01" /></g><g
         transform="scale(1.04522)"
         id="g68"><path
           id="path70"
           style="fill:#b8d1ce;fill-opacity:1;fill-rule:nonzero;stroke:none"
           d="m 15944.2,3544.61 h -4879.6 l -349.5,3632.7 c -6.3,65.13 44.1,121.58 108.5,121.58 h 5361.6 c 64.5,0 114.8,-56.45 108.6,-121.58 l -349.6,-3632.7" /></g><g
         transform="scale(1.04804)"
         id="g72"><path
           id="path74"
           style="fill:#ffffff;fill-opacity:1;fill-rule:nonzero;stroke:none"
           d="m 15939.5,3432.61 h -4942.7 l -354.1,3622.97 c -6.4,64.97 44.6,121.25 109.9,121.25 h 5431.1 c 65.3,0 116.3,-56.28 109.9,-121.25 l -354.1,-3622.97" /></g><g
         transform="scale(1.02467)"
         id="g76"><path
           id="path78"
           style="fill:#b8d1ce;fill-opacity:1;fill-rule:nonzero;stroke:none"
           d="m 16300,3286.04 h -5052.5 v 224.85 H 16300 v -224.85" /></g><path
         id="path80"
         style="fill:#b8d1ce;fill-opacity:1;fill-rule:nonzero;stroke:none"
         d="m 14474.3,5559.6 c 0,-198.4 -160.8,-359.2 -359.2,-359.2 -198.4,0 -359.2,160.8 -359.2,359.2 0,198.3 160.8,359.1 359.2,359.1 198.4,0 359.2,-160.8 359.2,-359.1" /><path
         id="path82"
         style="fill:#9b87ff;fill-opacity:1;fill-rule:nonzero;stroke:none"
         d="M 5509.18,3658.6 5375.87,3626.8 4163.2,8717.58 4296.5,8749.34 5509.18,3658.6" /><path
         id="path84"
         style="fill:#9b87ff;fill-opacity:1;fill-rule:nonzero;stroke:none"
         d="m 5810.61,3583.6 -133.31,-31.7 -1243.86,5221.61 133.3,31.75 1243.87,-5221.66" /><path
         id="path86"
         style="fill:#9b87ff;fill-opacity:1;fill-rule:nonzero;stroke:none"
         d="m 4578.28,9064.81 -91.95,101.62 2716.9,2458.57 91.94,-101.6 -2716.89,-2458.59" /><path
         id="path88"
         style="fill:#9b87ff;fill-opacity:1;fill-rule:nonzero;stroke:none"
         d="m 4657.49,8764.47 -91.94,101.61 2716.89,2458.62 91.95,-101.6 -2716.9,-2458.63" /><path
         id="path90"
         style="fill:#8070f2;fill-opacity:1;fill-rule:nonzero;stroke:none"
         d="m 5184.31,3384.3 h 2757.27 v 213.699 H 5184.31 Z" /><path
         id="path92"
         style="fill:#9b87ff;fill-opacity:1;fill-rule:nonzero;stroke:none"
         d="M 7548.21,4025.2 H 5577.68 c -217.25,0 -393.37,-176.1 -393.37,-393.3 V 3598 h 2757.27 v 33.9 c 0,217.2 -176.12,393.3 -393.37,393.3" /><path
         id="path94"
         style="fill:#9b87ff;fill-opacity:1;fill-rule:nonzero;stroke:none"
         d="m 7350.71,11211.9 -68.51,118.7 816.43,471.3 68.52,-118.7 -816.44,-471.3" /><path
         id="path96"
         style="fill:#8070f2;fill-opacity:1;fill-rule:nonzero;stroke:none"
         d="M 4861.73,8770.52 4668.18,8501.7 c -28.07,-38.98 -80.4,-51.64 -123.19,-29.78 l -406.64,207.7 c -53.35,27.25 -69.63,95.8 -34.2,144.13 l 309.25,421.95 c 37.76,51.53 114.09,53.28 154.19,3.55 l 290.93,-360.83 c 27.49,-34.1 28.81,-82.36 3.21,-117.9" /><path
         id="path98"
         style="fill:#ffffff;fill-opacity:1;fill-rule:nonzero;stroke:none"
         d="m 4224.98,8776.06 c 0,-24.62 -19.96,-44.58 -44.58,-44.58 -24.62,0 -44.58,19.96 -44.58,44.58 0,24.63 19.96,44.59 44.58,44.59 24.62,0 44.58,-19.96 44.58,-44.59" /><path
         id="path100"
         style="fill:#ffffff;fill-opacity:1;fill-rule:nonzero;stroke:none"
         d="m 4640.43,8563.28 c 0,-24.63 -19.96,-44.59 -44.58,-44.59 -24.63,0 -44.59,19.96 -44.59,44.59 0,24.62 19.96,44.58 44.59,44.58 24.62,0 44.58,-19.96 44.58,-44.58" /><path
         id="path102"
         style="fill:#ffffff;fill-opacity:1;fill-rule:nonzero;stroke:none"
         d="m 4826.88,8830.78 c 0,-24.62 -19.96,-44.58 -44.59,-44.58 -24.62,0 -44.58,19.96 -44.58,44.58 0,24.63 19.96,44.59 44.58,44.59 24.63,0 44.59,-19.96 44.59,-44.59" /><path
         id="path104"
         style="fill:#8070f2;fill-opacity:1;fill-rule:nonzero;stroke:none"
         d="m 7034.84,11574.9 133.95,-539.8 c 14.83,-59.8 88.81,-81.1 133.16,-38.3 l 400.53,385.9 c 44.34,42.7 25.8,117.4 -33.37,134.5 l -534.49,153.9 c -59.18,17 -114.62,-36.4 -99.78,-96.2" /><path
         id="path106"
         style="fill:#ffffff;fill-opacity:1;fill-rule:nonzero;stroke:none"
         d="m 7299.51,11075.9 c -13.46,-20.7 -41.09,-26.5 -61.7,-13 -20.62,13.5 -26.43,41.1 -12.97,61.7 13.46,20.6 41.09,26.4 61.71,13 20.62,-13.5 26.42,-41.1 12.96,-61.7" /><path
         id="path108"
         style="fill:#ffffff;fill-opacity:1;fill-rule:nonzero;stroke:none"
         d="m 7174.62,11551.9 c -13.46,-20.6 -41.09,-26.5 -61.71,-13 -20.62,13.5 -26.42,41.1 -12.96,61.7 13.46,20.6 41.08,26.4 61.7,13 20.62,-13.5 26.42,-41.1 12.97,-61.7" /><path
         id="path110"
         style="fill:#ffffff;fill-opacity:1;fill-rule:nonzero;stroke:none"
         d="m 7655.92,11404.6 c -13.47,-20.7 -41.09,-26.5 -61.71,-13 -20.62,13.4 -26.42,41.1 -12.96,61.7 13.46,20.6 41.09,26.4 61.7,13 20.62,-13.5 26.42,-41.1 12.97,-61.7" /><path
         id="path112"
         style="fill:#ffffff;fill-opacity:1;fill-rule:nonzero;stroke:none"
         d="m 4539.1,9197.59 c 0,-24.62 -19.96,-44.58 -44.58,-44.58 -24.62,0 -44.59,19.96 -44.59,44.58 0,24.63 19.97,44.59 44.59,44.59 24.62,0 44.58,-19.96 44.58,-44.59" /><path
         id="path114"
         style="fill:#9b87ff;fill-opacity:1;fill-rule:nonzero;stroke:none"
         d="m 9047.8,11522.4 -887.82,-189.9 -259.91,1215.3 c -13.76,64.3 27.25,127.6 91.61,141.4 l 654.75,140.1 c 64.36,13.7 127.7,-27.3 141.47,-91.6 l 259.9,-1215.3" /><path
         id="path116"
         style="fill:#8070f2;fill-opacity:1;fill-rule:nonzero;stroke:none"
         d="m 8988.88,11807 -891.52,-190.7 -50.6,236.5 891.52,190.7 50.6,-236.5" /><path
         id="path118"
         style="fill:#9b87ff;fill-opacity:1;fill-rule:nonzero;stroke:none"
         d="m 10090,10938.5 -2550.06,-545.4 559,1224.8 887.83,189.9 1103.23,-869.3" /><path
         id="path120"
         style="fill:#dcdce4;fill-opacity:1;fill-rule:nonzero;stroke:none"
         d="m 8795.04,10658 -0.75,3.4 1295.71,277.1 c 0,0 -922.01,-203.2 -1294.96,-280.5" /><path
         id="path122"
         style="fill:#8b79e5;fill-opacity:1;fill-rule:nonzero;stroke:none"
         d="m 8794.29,10661.4 -238.22,1054.3 430.7,92.1 1103.23,-869.3 -1295.71,-277.1" /><path
         id="path124"
         style="fill:#e5e5e5;fill-opacity:1;fill-rule:nonzero;stroke:none"
         d="m 8946.34,12005.9 -8.06,37.6 -1.84,-0.4 -148.54,694.6 c -10.11,47.2 -46.92,81.9 -91.24,91.5 45.9,-7.6 84.68,-42.4 94.99,-90.7 l 156.32,-730.8 c -0.59,-0.7 -1.04,-1.2 -1.63,-1.8" /><path
         id="path126"
         style="fill:#dcdce4;fill-opacity:1;fill-rule:nonzero;stroke:none"
         d="m 8988.62,11808.2 -42.28,197.7 c 0.59,0.6 1.04,1.1 1.63,1.8 l 42.58,-199.1 -1.93,-0.4" /><path
         id="path128"
         style="fill:#8b79e5;fill-opacity:1;fill-rule:nonzero;stroke:none"
         d="m 8505.74,11951 -172.96,808.7 320.42,68.5 c 8.22,1.7 16.43,2.6 24.51,2.6 6.41,0 12.75,-0.6 18.95,-1.6 44.32,-9.6 81.13,-44.3 91.24,-91.5 l 148.54,-694.6 -430.7,-92.1" /><path
         id="path130"
         style="fill:#7365d9;fill-opacity:1;fill-rule:nonzero;stroke:none"
         d="m 8556.07,11715.7 -50.33,235.3 430.7,92.1 1.84,0.4 8.06,-37.6 42.28,-197.7 -1.85,-0.4 v 0 l -430.7,-92.1" /><path
         id="path132"
         style="fill:#00a3d5;fill-opacity:1;fill-rule:nonzero;stroke:none"
         d="m 7432.36,4248 c -14.27,-3 -28.26,6.1 -31.24,20.4 l -45.03,215.9 c -2.97,14.3 6.19,28.3 20.47,31.3 14.28,2.9 28.27,-6.2 31.24,-20.5 l 45.03,-215.9 c 2.98,-14.3 -6.18,-28.3 -20.47,-31.2" /><path
         id="path134"
         style="fill:#00a3d5;fill-opacity:1;fill-rule:nonzero;stroke:none"
         d="m 7101.96,5832.2 v 0 c -39.31,-8.2 -78.18,17.3 -86.38,56.6 l -53.9,258.41 c -8.2,39.3 17.25,78.17 56.56,86.37 39.3,8.2 78.17,-17.25 86.37,-56.57 l 53.9,-258.41 c 8.2,-39.3 -17.25,-78.2 -56.55,-86.4" /><path
         id="path136"
         style="fill:#00a3d5;fill-opacity:1;fill-rule:nonzero;stroke:none"
         d="m 7406.36,4372.6 c -39.3,-8.2 -78.17,17.3 -86.37,56.6 l -53.9,258.4 c -8.2,39.4 17.25,78.2 56.56,86.4 39.3,8.2 78.17,-17.2 86.37,-56.5 l 53.91,-258.5 c 8.19,-39.3 -17.27,-78.2 -56.57,-86.4" /><path
         id="path138"
         style="fill:#6dc9f0;fill-opacity:1;fill-rule:nonzero;stroke:none"
         d="m 7140.69,6049.7 -161.18,-33.62 c -40.31,-8.4 -66.17,-47.88 -57.76,-88.18 l 136.99,-656.8 170.76,-653.6 c 10.04,-38.4 48.46,-62.2 87.35,-54.1 l 95.31,19.9 c 38.89,8.1 64.59,45.3 58.43,84.5 l -104.72,667.3 -136.99,656.8 c -8.4,40.35 -47.89,66.21 -88.19,57.8" /><path
         id="path140"
         style="fill:#00a3d5;fill-opacity:1;fill-rule:nonzero;stroke:none"
         d="m 7347.38,5286.9 -252.4,-52.7 c -23.51,-4.9 -46.55,10.2 -51.45,33.7 -4.9,23.5 10.18,46.6 33.69,51.5 l 252.4,52.6 c 23.51,4.9 46.55,-10.2 51.46,-33.7 4.9,-23.5 -10.19,-46.5 -33.7,-51.4" /><path
         id="path142"
         style="fill:#00a3d5;fill-opacity:1;fill-rule:nonzero;stroke:none"
         d="m 7460.37,5399.3 v 0 c -18.39,-3.9 -36.58,8.1 -40.42,26.4 l -129.37,620.35 c -3.84,18.4 8.07,36.6 26.47,40.43 18.4,3.83 36.59,-8.07 40.42,-26.47 l 129.38,-620.31 c 3.83,-18.4 -8.08,-36.6 -26.48,-40.4" /><path
         id="path144"
         style="fill:#6dc9f0;fill-opacity:1;fill-rule:nonzero;stroke:none"
         d="m 7336.87,5824.1 -69.93,-14.6 -38.05,182.4 69.93,14.62 38.05,-182.42" /><path
         id="path146"
         style="fill:#ffc73c;fill-opacity:1;fill-rule:nonzero;stroke:none"
         d="m 7820.02,6443 -330.81,16.97 -80.66,-1572.07 330.8,-16.9 80.67,1572" /><path
         id="path148"
         style="fill:#f8f8fe;fill-opacity:1;fill-rule:nonzero;stroke:none"
         d="m 7744.67,6446.86 -99.95,5.13 99.95,-5.13" /><path
         id="path150"
         style="fill:#ffd877;fill-opacity:1;fill-rule:nonzero;stroke:none"
         d="m 7661.5,4989.9 h -172.18 l 75.24,1466.2 80.16,-4.11 99.95,-5.13 -73.71,-1436.46 -9.46,-20.5" /><path
         id="path152"
         style="fill:#0b2d4e;fill-opacity:1;fill-rule:nonzero;stroke:none"
         d="m 7544.25,4352.3 195.1,518.7 -336.08,17.2 140.98,-535.9" /><path
         id="path154"
         style="fill:#ffe9cc;fill-opacity:1;fill-rule:nonzero;stroke:none"
         d="m 7646.01,4622.9 93.34,248.1 -336.08,17.2 67.44,-256.4 175.3,-8.9" /><path
         id="path156"
         style="fill:#0b2d4e;fill-opacity:1;fill-rule:nonzero;stroke:none"
         d="m 7820.01,6443 -330.79,16.97 8.41,163.75 330.79,-16.97 -8.41,-163.75" /><path
         id="path158"
         style="fill:#9b87ff;fill-opacity:1;fill-rule:nonzero;stroke:none"
         d="m 7828.08,6600.2 -330.79,16.97 c 4.64,90.44 81.71,159.99 172.15,155.35 l 3.3,-0.17 c 90.43,-4.64 159.98,-81.72 155.34,-172.14 v -0.01" /><path
         id="path160"
         style="fill:#ffc73c;fill-opacity:1;fill-rule:nonzero;stroke:none"
         d="m 7486.31,4610.3 300.74,-138.8 659.66,1429.2 -300.74,138.82 -659.66,-1429.22" /><path
         id="path162"
         style="fill:#f8f8fe;fill-opacity:1;fill-rule:nonzero;stroke:none"
         d="m 8378.21,5932.3 -81.87,37.8 81.87,-37.8" /><path
         id="path164"
         style="fill:#ffd877;fill-opacity:1;fill-rule:nonzero;stroke:none"
         d="m 7943.22,4989.9 h -198.63 l 469.88,1018 81.87,-37.8 81.87,-37.8 -434.99,-942.4" /><path
         id="path166"
         style="fill:#0b2d4e;fill-opacity:1;fill-rule:nonzero;stroke:none"
         d="M 8520.01,6448.38 8145.97,6039.52 8451.52,5898.5 Z" /><path
         id="path168"
         style="fill:#ffe9cc;fill-opacity:1;fill-rule:nonzero;stroke:none"
         d="m 8324.91,6235.12 -178.94,-195.6 305.55,-141.02 32.76,263.05 -159.37,73.57" /><path
         id="path170"
         style="fill:#51666f;fill-opacity:1;fill-rule:nonzero;stroke:none"
         d="m 7486.31,4610.3 300.74,-138.8 -68.72,-148.9 -300.74,138.8 68.72,148.9" /><path
         id="path172"
         style="fill:#d8584e;fill-opacity:1;fill-rule:nonzero;stroke:none"
         d="m 7420.34,4467.4 300.74,-138.8 -60.34,-130.7 c -4.63,-10 -16.5,-14.4 -26.53,-9.8 l -264.43,122.1 c -10.03,4.6 -14.41,16.5 -9.78,26.5 l 60.34,130.7" /><path
         id="path174"
         style="fill:#381f7a;fill-opacity:1;fill-rule:nonzero;stroke:none"
         d="M 7068.1,3382.3 H 8070.15 V 4989.9 H 7068.1 Z" /><path
         id="path176"
         style="fill:#321c6e;fill-opacity:1;fill-rule:nonzero;stroke:none"
         d="m 7068.1,3382.3 h 501.02 V 4989.9 H 7068.1 Z" /><path
         id="path178"
         style="fill:#ffc73c;fill-opacity:1;fill-rule:nonzero;stroke:none"
         d="m 9392.29,3378.4 h -627.57 c -187.77,0 -340,152.2 -340,340 v 1533 h 1307.57 v -1533 c 0,-187.8 -152.23,-340 -340,-340" /><path
         id="path180"
         style="fill:#ffc73c;fill-opacity:1;fill-rule:nonzero;stroke:none"
         d="m 9823.6,3881 c -201.74,0 -365.28,166 -365.28,370.7 0,204.7 163.54,370.6 365.28,370.6 201.7,0 365.3,-165.9 365.3,-370.6 0,-204.7 -163.6,-370.7 -365.3,-370.7 z m 0,946.7 c -313.55,0 -567.74,-257.9 -567.74,-576 0,-318.2 254.19,-576.1 567.74,-576.1 313.5,0 567.7,257.9 567.7,576.1 0,318.1 -254.2,576 -567.7,576" /><path
         id="path182"
         style="fill:#ffd263;fill-opacity:1;fill-rule:nonzero;stroke:none"
         d="m 8620.23,4089.3 c -38.87,0 -70.68,31.8 -70.68,70.7 v 911.5 c 0,38.9 31.81,70.7 70.68,70.7 38.89,0 70.69,-31.8 70.69,-70.7 V 4160 c 0,-38.9 -31.8,-70.7 -70.69,-70.7" /><path
         id="path184"
         style="fill:#efb126;fill-opacity:1;fill-rule:nonzero;stroke:none"
         d="M 9430.32,5251.4 V 3709.6 c 0,-182.9 -148.26,-331.2 -331.15,-331.2 h 301.97 c 182.89,0 331.15,148.3 331.15,331.2 v 1541.8 h -301.97" /><g
         transform="scale(1.43305)"
         id="g186"><path
           id="path188"
           style="fill:#3dc8e8;fill-opacity:1;fill-rule:nonzero;stroke:none"
           d="m 15372.5,8014.77 c -91.2,0.53 -179.7,12.25 -242.1,101.69 -122.5,175.52 -309.6,333.1 -519.5,154.6 -121,-102.94 -30,-314.72 -134.1,-416.58 -92.1,-90.08 -209.2,-75.19 -256.3,-224.72 -69.3,-219.96 149.1,-412.69 219.2,-602.9 58.8,-159.61 -73.5,-220.44 -132.9,-344.83 -45.9,-95.89 -22.3,-198.6 27.6,-290.27 88.1,-161.64 283.3,-291.79 238.1,-501.1 -37.8,-174.69 -72.9,-330.38 81.3,-462.78 105.6,-90.76 301.7,-173.47 286.8,-341.45 -5.3,-59.45 -46.5,-110.11 -57.7,-168.71 -17.9,-92.76 42.2,-183.02 112,-246.67 158.7,-144.85 298.2,-281.45 417.1,-463.68 50.8,-77.85 254.2,-253.7 172.9,-360.19 147.8,193.58 303.9,381.2 438.2,584.64 110.5,167.32 276.9,412.04 163.6,618.12 -35.3,64.09 -100.8,111.86 -118.8,182.78 -32.4,128.05 93.4,246.77 140.2,355.71 73.5,171.06 19.5,369.71 -109.8,498.12 -61.2,60.74 -127.6,127.54 -136.6,213.32 -9.8,93.64 48.9,180.97 75.5,267.35 24.6,79.63 39.8,164.31 48.8,247.03 6.4,58.4 8.8,118.18 -4.9,175.3 -26.2,108.64 -124,169.04 -196.4,246.13 -172.4,183.51 -81.8,399.3 -157.1,612.58 -60.2,170.59 -183.4,168.73 -308.9,166.87 -15.5,-0.22 -30.9,-0.45 -46.2,-0.36" /></g><g
         id="g190"><g
           clip-path="url(#clipPath196)"
           id="g192"><g
             transform="scale(1.3756)"
             id="g198"><path
               id="path200"
               style="fill:#26a8d1;fill-opacity:1;fill-rule:nonzero;stroke:none"
               d="m 16273,3779.07 c 18.4,210.6 27,421.64 27,632.6 0,556.75 -60.5,1113.06 -163.1,1659.88 -134.8,718.77 -311.8,1440.45 -580.4,2122.74 -88.8,225.46 -188.5,446.83 -301.9,661.24 l -32.1,-16.99 c 112.6,-213.06 211.8,-433.2 300.2,-657.57 267.4,-679.2 443.9,-1398.68 578.5,-2116.12 102.3,-544.99 162.5,-1099.07 162.5,-1653.18 0,-210.02 -8.7,-419.96 -26.9,-629.47 l 36.2,-3.13" /></g><g
             transform="scale(1.34291)"
             id="g202"><path
               id="path204"
               style="fill:#26a8d1;fill-opacity:1;fill-rule:nonzero;stroke:none"
               d="m 14985.1,7994.9 c 383.9,-135.48 750,-321.12 1086.2,-550.68 43.4,-29.65 77,-48.92 107.8,-69.59 30.8,-20.7 59.1,-42.78 93.9,-79.41 l 27,25.63 c -36.6,38.57 -67.8,63.03 -100.2,84.69 -32.3,21.69 -65.3,40.6 -107.5,69.43 -338.9,231.39 -707.8,418.48 -1094.8,555.05 l -12.4,-35.12" /></g><g
             transform="scale(1.35769)"
             id="g206"><path
               id="path208"
               style="fill:#26a8d1;fill-opacity:1;fill-rule:nonzero;stroke:none"
               d="m 16300,6414.27 c -368,237.81 -785.2,398.88 -1217.6,470 l -6,-36.34 c 427.3,-70.28 839.9,-229.54 1203.6,-464.59 l 20,30.93" /></g><g
             transform="scale(1.36991)"
             id="g210"><path
               id="path212"
               style="fill:#26a8d1;fill-opacity:1;fill-rule:nonzero;stroke:none"
               d="m 16300,5365.36 c -339.8,294.45 -753.8,502.26 -1193,598.79 l -7.8,-35.65 c 433.1,-95.18 841.8,-300.31 1176.9,-590.72 l 23.9,27.58" /></g><g
             transform="scale(1.36655)"
             id="g214"><path
               id="path216"
               style="fill:#26a8d1;fill-opacity:1;fill-rule:nonzero;stroke:none"
               d="m 16004.3,7205.82 c 26.3,404.84 127,804.81 295.7,1173.78 l -33.2,15.22 c -170.6,-373.06 -272.5,-777.31 -299,-1186.63 l 36.5,-2.37" /></g><g
             transform="scale(1.41823)"
             id="g218"><path
               id="path220"
               style="fill:#26a8d1;fill-opacity:1;fill-rule:nonzero;stroke:none"
               d="m 15606.2,6150.52 c 164.5,352.12 402.4,669.9 693.8,927.11 l -23.3,26.42 c -295.1,-260.43 -535.8,-582.05 -702.5,-938.6 l 32,-14.93" /></g><g
             transform="scale(1.4191)"
             id="g222"><path
               id="path224"
               style="fill:#26a8d1;fill-opacity:1;fill-rule:nonzero;stroke:none"
               d="m 15762.5,5135.3 c 22.5,107.59 61.9,211.67 116.4,307.13 63.4,111.05 146.9,210.33 232.7,307.73 61.7,70.16 124.6,139.38 188.4,207.64 l -25.8,24.06 c -64,-68.51 -127.1,-138 -189.1,-208.43 -86,-97.79 -171.2,-198.78 -236.8,-313.53 -56.3,-98.68 -97.1,-206.17 -120.4,-317.39 l 34.6,-7.21" /></g></g></g><g
         transform="scale(1.52046)"
         id="g226"><path
           id="path228"
           style="fill:#26a8d1;fill-opacity:1;fill-rule:nonzero;stroke:none"
           d="m 15543.9,6293.56 c 62.4,-11.53 124.5,-15.05 178.8,37.94 106.7,104.01 255.2,187.34 375.3,37.94 69.3,-86.17 -20.5,-219.09 37.4,-302.32 51.2,-73.6 133.2,-78.7 145.9,-187.06 18.7,-159.43 -155.8,-262.7 -228.5,-383.59 -61.1,-101.46 21.5,-160.3 45.9,-253.1 18.8,-71.53 -10.7,-138.68 -56.8,-194.84 -81.3,-99.02 -231.7,-162.52 -228.1,-311.53 3,-124.35 6.7,-235.37 -116,-305.78 -84,-48.26 -228.9,-79.23 -240.6,-196.04 -4.1,-41.32 17.4,-81.33 17.5,-122.87 0.1,-65.74 -52.8,-119.61 -108.8,-154.03 -127.4,-78.34 -240.5,-153.51 -345.6,-262.56 -44.9,-46.63 -207,-140.28 -165.3,-223.68 -75.7,151.6 -158,300.24 -223.3,456.84 -53.7,128.79 -135.6,317.82 -31.2,443.92 32.4,39.23 83.5,63.33 105,109.48 38.9,83.31 -31.6,180.89 -49.3,261.48 -27.9,126.52 34.8,255.3 140,326.21 49.8,33.55 103.9,70.56 121.2,128.02 18.9,62.75 -9.8,130.11 -16.8,192.64 -6.4,57.65 -5.8,117.53 -1.1,175.26 3.3,40.75 9.4,81.93 26.2,119.2 32.1,70.86 106.9,99.39 166.4,142.65 141.8,102.97 108,262.32 187.4,398.31 71.1,122.08 168.2,85.29 264.4,67.51" /></g><g
         id="g230"><g
           clip-path="url(#clipPath236)"
           id="g232"><g
             transform="scale(1.50445)"
             id="g238"><path
               id="path240"
               style="fill:#3dc8e8;fill-opacity:1;fill-rule:nonzero;stroke:none"
               d="m 14988.3,3358.97 c 52.2,513.61 190,1015.37 378.5,1495.68 180,458.66 388,913.26 651.2,1329.56 86.8,137.52 180.4,270.84 282,397.75 l -26,20.77 c -102.4,-128.01 -196.7,-262.34 -284.1,-400.76 -264.8,-418.86 -473.6,-875.36 -654.1,-1335.18 -189.3,-482.5 -327.9,-987.16 -380.6,-1504.43 l 33.1,-3.39" /></g><g
             transform="scale(1.5189)"
             id="g242"><path
               id="path244"
               style="fill:#3dc8e8;fill-opacity:1;fill-rule:nonzero;stroke:none"
               d="m 16397.5,5796.92 c -265.2,-40.29 -525.1,-115.22 -771.1,-222.3 -30.4,-13.26 -53.8,-21.32 -77.4,-31.35 -23.6,-10.02 -47,-22.09 -75.4,-42.53 l 19.2,-26.74 c 26.6,19.06 47,29.55 69.1,38.99 22.1,9.4 46,17.67 77.7,31.44 243.3,105.95 500.5,180.08 762.9,219.95 l -5,32.54" /></g><g
             transform="scale(1.50087)"
             id="g246"><path
               id="path248"
               style="fill:#3dc8e8;fill-opacity:1;fill-rule:nonzero;stroke:none"
               d="m 15453,5016.05 c 251,101.81 522,154.52 792.9,154.52 17.8,0 35.5,-0.22 53.2,-0.68 l 0.9,33.3 c -18,0.46 -36,0.7 -54.1,0.7 -275.2,-0.01 -550.4,-53.53 -805.5,-156.96 l 12.6,-30.88" /></g><g
             transform="scale(1.48123)"
             id="g250"><path
               id="path252"
               style="fill:#3dc8e8;fill-opacity:1;fill-rule:nonzero;stroke:none"
               d="m 15436.9,4437.71 c 261.4,151.55 561.1,236.65 863.1,245.04 l -0.9,33.74 c -307.8,-8.56 -612.8,-95.18 -879.1,-249.58 l 16.9,-29.2" /></g><g
             transform="scale(1.44734)"
             id="g254"><path
               id="path256"
               style="fill:#3dc8e8;fill-opacity:1;fill-rule:nonzero;stroke:none"
               d="m 16282,5771.45 c 12,96.43 18,193.59 18,290.75 0,189.35 -22.7,378.72 -67.8,562.66 l -33.5,-8.23 c 44.4,-181.21 66.8,-367.83 66.8,-554.43 0,-95.75 -5.9,-191.49 -17.7,-286.49 l 34.2,-4.26" /></g><g
             transform="scale(1.42445)"
             id="g258"><path
               id="path260"
               style="fill:#3dc8e8;fill-opacity:1;fill-rule:nonzero;stroke:none"
               d="m 16300,5328.45 c -71.4,281.08 -201.2,547.08 -378.8,776.34 l -27.7,-21.49 c 174.6,-225.41 302.2,-487.13 372.5,-763.49 l 34,8.64" /></g><g
             transform="scale(1.40187)"
             id="g262"><path
               id="path264"
               style="fill:#3dc8e8;fill-opacity:1;fill-rule:nonzero;stroke:none"
               d="m 16300,4687.75 c -1.5,85.41 -16.5,170.53 -44.2,251.35 -32.2,93.98 -80.8,180.34 -130.4,264.27 -35.6,60.43 -72.2,120.33 -109.7,179.66 l -30.1,-19.05 c 37.3,-59.03 73.6,-118.61 109.2,-178.75 49.3,-83.47 96.5,-167.81 127.3,-257.7 26.5,-77.27 40.8,-158.74 42.2,-240.41 l 35.7,0.63" /></g></g></g><g
         transform="scale(1.44419)"
         id="g266"><path
           id="path268"
           style="fill:#efb126;fill-opacity:1;fill-rule:nonzero;stroke:none"
           d="M 14957.7,3686.84 H 16300 l -235.4,-1343.31 h -871.4 l -235.5,1343.31" /></g><g
         transform="scale(1.45875)"
         id="g270"><path
           id="path272"
           style="fill:#ffc73c;fill-opacity:1;fill-rule:nonzero;stroke:none"
           d="M 14645.7,3650.03 H 16300 v 373.27 h -1654.3 v -373.27" /></g><g
         transform="scale(1.44419)"
         id="g274"><path
           id="path276"
           style="fill:#daa225;fill-opacity:1;fill-rule:nonzero;stroke:none"
           d="m 16268.8,3508.68 h -1039.4 v 3.25 h -241 v 0 h 297.5 v 96.94 h -314.5 l -13.7,77.97 H 16300 l -7.3,-41.75 -23.9,-136.41" /></g><g
         transform="scale(1.44419)"
         id="g278"><path
           id="path280"
           style="fill:#e9b639;fill-opacity:1;fill-rule:nonzero;stroke:none"
           d="m 16300,3686.84 h -1342.3 v 0 H 16300" /></g><g
         transform="scale(1.34209)"
         id="g282"><path
           id="path284"
           style="fill:#9b87ff;fill-opacity:1;fill-rule:nonzero;stroke:none"
           d="m 16300,2523.09 h -2251.3 c -187.2,0 -339,118.1 -339,263.84 v 67.66 c 0,145.74 151.8,263.91 339,263.91 H 16300 v -81.21 h -2094.8 c -72,0 -130.4,-45.45 -130.4,-101.49 v -230.01 c 0,-56.11 58.4,-101.49 130.4,-101.49 H 16300 v -81.21" /></g><g
         transform="scale(1.36356)"
         id="g286"><path
           id="path288"
           style="fill:#8070f2;fill-opacity:1;fill-rule:nonzero;stroke:none"
           d="m 16300,2483.35 h -2215.9 c -184.2,0 -333.6,116.24 -333.6,259.69 v 66.6 c 0,143.44 149.4,259.76 333.6,259.76 H 16300 v -79.94 h -2215.9 c -127.5,0 -230.9,-80.53 -230.9,-179.82 v -66.6 c 0,-99.29 103.4,-179.75 230.9,-179.75 H 16300 v -79.94" /></g><g
         transform="scale(1.35855)"
         id="g290"><path
           id="path292"
           style="fill:#ffffff;fill-opacity:1;fill-rule:nonzero;stroke:none"
           d="m 16300,2572.75 h -2188.3 c -118.1,0 -213.9,95.69 -213.9,213.83 0,118.14 95.8,213.91 213.9,213.91 H 16300 v -427.74" /></g><g
         transform="scale(1.33475)"
         id="g294"><path
           id="path296"
           style="fill:#dfdbda;fill-opacity:1;fill-rule:nonzero;stroke:none"
           d="m 14267.9,2866.31 c 169.4,4.79 338.7,8.01 508.1,9.66 169.3,1.95 338.7,2.48 508,2.7 169.3,-0.15 338.6,-0.75 508,-2.7 169.4,-1.57 338.7,-4.79 508,-9.66 -169.3,-4.8 -338.6,-8.02 -508,-9.66 -169.4,-1.95 -338.7,-2.48 -508,-2.7 -169.3,0.22 -338.7,0.82 -508,2.77 -169.4,1.65 -338.7,4.79 -508.1,9.59" /></g><g
         transform="scale(1.35712)"
         id="g298"><path
           id="path300"
           style="fill:#dfdbda;fill-opacity:1;fill-rule:nonzero;stroke:none"
           d="m 14301.4,2686.43 c 166.6,4.72 333.1,7.89 499.7,9.51 166.5,1.91 333,2.43 499.6,2.65 166.6,-0.22 333.1,-0.74 499.6,-2.65 166.6,-1.62 333.1,-4.79 499.7,-9.51 -166.6,-4.72 -333.1,-7.88 -499.7,-9.5 -166.5,-1.92 -333,-2.43 -499.6,-2.66 -166.6,0.23 -333.1,0.74 -499.6,2.73 -166.6,1.55 -333.1,4.71 -499.7,9.43" /></g><g
         transform="scale(1.3589)"
         id="g302"><path
           id="path304"
           style="fill:#daa225;fill-opacity:1;fill-rule:nonzero;stroke:none"
           d="m 16300,2865.26 h -4.3 v 134.44 h 4.3 v -134.44" /></g><g
         transform="scale(1.16354)"
         id="g306"><path
           id="path308"
           style="fill:#e0dfe7;fill-opacity:1;fill-rule:nonzero;stroke:none"
           d="m 16253,3364.56 h -2.1 c 10.9,19.68 22.5,36.61 34.7,51.22 4.5,4.9 9.3,9.63 14.4,14.18 -19,-18.99 -35,-41.08 -47,-65.4" /></g><g
         transform="scale(1.17616)"
         id="g310"><path
           id="path312"
           style="fill:#7768dd;fill-opacity:1;fill-rule:nonzero;stroke:none"
           d="m 16110.8,3379.13 c 60.3,72.36 133.5,86.64 189.2,86.64 -68.4,0 -130.2,-27.72 -174.9,-72.61 -5,-4.5 -9.8,-9.18 -14.3,-14.03" /></g><g
         transform="scale(1.35855)"
         id="g314"><path
           id="path316"
           style="fill:#e9e8e8;fill-opacity:1;fill-rule:nonzero;stroke:none"
           d="m 16300,2866.01 -2380,15.6 c 10.3,20.83 24,39.75 40.3,56.01 38.7,38.87 92.2,62.87 151.4,62.87 v 0 H 16300 v -134.48" /></g><g
         transform="scale(1.35434)"
         id="g318"><path
           id="path320"
           style="fill:#381f7a;fill-opacity:1;fill-rule:nonzero;stroke:none"
           d="m 16300,3090.28 h -2334.3 c -128.2,0 -232.6,104.33 -232.6,232.51 v 292.91 c 0,128.25 104.4,232.58 232.6,232.58 H 16300 v -103.37 h -2334.3 c -71.2,0 -129.2,-57.96 -129.2,-129.21 v -292.91 c 0,-71.18 58,-129.14 129.2,-129.14 H 16300 v -103.37" /></g><g
         transform="scale(1.34933)"
         id="g322"><path
           id="path324"
           style="fill:#ffffff;fill-opacity:1;fill-rule:nonzero;stroke:none"
           d="m 16300,3205.51 h -2288.9 c -71.6,0 -129.7,58.03 -129.7,129.7 v 293.92 c 0,71.59 58.1,129.69 129.7,129.69 H 16300 v -553.31" /></g><g
         transform="scale(1.34933)"
         id="g326"><path
           id="path328"
           style="fill:#e9e8e8;fill-opacity:1;fill-rule:nonzero;stroke:none"
           d="m 16300,3623.42 -2418.6,5.71 c 0,71.59 58.1,129.69 129.7,129.69 H 16300 v -3.48 -131.92" /></g><g
         transform="scale(1.34199)"
         id="g330"><path
           id="path332"
           style="fill:#dfdbda;fill-opacity:1;fill-rule:nonzero;stroke:none"
           d="m 14278.9,3537.35 c 168.5,5.51 336.9,9.24 505.3,11.1 168.4,2.24 336.9,2.83 505.3,3.13 168.4,-0.22 336.8,-0.82 505.3,-3.13 168.4,-1.86 336.8,-5.51 505.2,-11.1 -168.4,-5.52 -336.8,-9.24 -505.2,-11.1 -168.5,-2.24 -336.9,-2.84 -505.3,-3.13 -168.4,0.29 -336.9,0.89 -505.3,3.2 -168.4,1.86 -336.8,5.59 -505.3,11.03" /></g><g
         transform="scale(1.32697)"
         id="g334"><path
           id="path336"
           style="fill:#dfdbda;fill-opacity:1;fill-rule:nonzero;stroke:none"
           d="m 14256,3456.3 c 170.3,5.57 340.6,9.34 511,11.23 170.3,2.26 340.7,2.86 511,3.16 170.3,-0.23 340.7,-0.83 511,-3.16 170.3,-1.89 340.6,-5.58 511,-11.23 -170.4,-5.58 -340.7,-9.35 -511,-11.23 -170.3,-2.26 -340.7,-2.87 -511,-3.09 -170.3,0.22 -340.7,0.83 -511,3.16 -170.4,1.89 -340.7,5.66 -511,11.16" /></g><g
         transform="scale(1.38502)"
         id="g338"><path
           id="path340"
           style="fill:#8b018d;fill-opacity:1;fill-rule:nonzero;stroke:none"
           d="m 13790,4141.01 h 2181.6 c 181.3,0 328.4,114.51 328.4,255.7 v 65.56 c 0,141.22 -147.1,255.69 -328.4,255.69 h -2181.5 v -78.67 h 2029.8 c 69.8,0 126.4,-44.04 126.4,-98.35 v -222.89 c 0,-54.3 -56.6,-98.34 -126.4,-98.34 H 13790 v -78.7" /></g><g
         transform="scale(1.36356)"
         id="g342"><path
           id="path344"
           style="fill:#381f7a;fill-opacity:1;fill-rule:nonzero;stroke:none"
           d="m 13750.5,4206.2 h 2215.8 c 184.3,0 333.7,116.31 333.7,259.73 v 66.59 c 0,143.44 -149.4,259.72 -333.7,259.72 h -2215.8 v -79.91 h 2215.8 c 127.6,0 231,-80.51 231,-179.81 v -66.59 c 0,-99.34 -103.4,-179.79 -231,-179.79 h -2215.8 v -79.94" /></g><g
         transform="scale(1.3555)"
         id="g346"><path
           id="path348"
           style="fill:#ffffff;fill-opacity:1;fill-rule:nonzero;stroke:none"
           d="m 13892.4,4311.61 h 2193.2 c 118.4,0 214.4,95.98 214.4,214.34 0,118.4 -96,214.38 -214.4,214.38 h -2193.2 v -428.72" /></g><g
         transform="scale(1.34548)"
         id="g350"><path
           id="path352"
           style="fill:#dfdbda;fill-opacity:1;fill-rule:nonzero;stroke:none"
           d="m 16300,4589.46 c -168,4.75 -335.9,7.93 -504,9.55 -168,1.96 -335.9,2.48 -503.9,2.72 -168,-0.21 -336,-0.73 -504,-2.69 -167.9,-1.6 -336,-4.81 -504,-9.58 168,-4.78 336.1,-7.97 504,-9.58 168,-1.95 336,-2.47 504,-2.69 168,0.25 335.9,0.77 503.9,2.73 168.1,1.6 336,4.79 504,9.54" /></g><g
         transform="scale(1.32312)"
         id="g354"><path
           id="path356"
           style="fill:#dfdbda;fill-opacity:1;fill-rule:nonzero;stroke:none"
           d="m 16300,4530.95 c -170.9,4.84 -341.7,8.08 -512.5,9.73 -170.8,1.98 -341.7,2.51 -512.5,2.76 -170.8,-0.21 -341.6,-0.74 -512.5,-2.73 -170.8,-1.64 -341.6,-4.89 -512.4,-9.76 170.8,-4.84 341.6,-8.09 512.4,-9.75 170.9,-1.97 341.7,-2.5 512.5,-2.72 170.8,0.22 341.7,0.75 512.5,2.79 170.8,1.67 341.6,4.84 512.5,9.68" /></g><g
         transform="scale(1.15529)"
         id="g358"><path
           id="path360"
           style="fill:#e0dfe7;fill-opacity:1;fill-rule:nonzero;stroke:none"
           d="m 16295,5403.69 v 158.15 h 5 v -158.12 l -5,-0.03" /></g><g
         transform="scale(1.3538)"
         id="g362"><path
           id="path364"
           style="fill:#3ab7d4;fill-opacity:1;fill-rule:nonzero;stroke:none"
           d="m 16298.3,4627 c -10.4,20.91 -24.1,39.88 -40.4,56.24 4.3,-3.91 8.4,-7.98 12.3,-12.17 10.5,-12.57 20.5,-27.15 29.8,-44.06 l -1.7,-0.01" /></g><g
         transform="scale(1.35133)"
         id="g366"><path
           id="path368"
           style="fill:#361f71;fill-opacity:1;fill-rule:nonzero;stroke:none"
           d="m 16300,4679.61 c -3.9,4.21 -8.1,8.28 -12.4,12.2 -38.9,39.02 -92.8,63.17 -152.3,63.17 48.5,0 112.3,-12.4 164.7,-75.37" /></g><g
         transform="scale(1.35366)"
         id="g370"><path
           id="path372"
           style="fill:#e9e8e8;fill-opacity:1;fill-rule:nonzero;stroke:none"
           d="m 13911.4,4611.85 v 134.95 h 2196.2 v 0 c 59.4,0 113.1,-24.12 152,-63.07 16.3,-16.36 30,-35.33 40.4,-56.25 l -2388.6,-15.63" /></g><g
         transform="scale(1.36928)"
         id="g374"><path
           id="path376"
           style="fill:#3dc8e8;fill-opacity:1;fill-rule:nonzero;stroke:none"
           d="m 16300,3794.61 h -2794.5 v 394.01 H 16300 v -394.01" /></g><g
         transform="scale(1.1646)"
         id="g378"><path
           id="path380"
           style="fill:#ffc73c;fill-opacity:1;fill-rule:nonzero;stroke:none"
           d="m 16300,4532.91 h -124 v 320.54 h 124 v -320.54" /></g><g
         transform="scale(1.20861)"
         id="g382"><path
           id="path384"
           style="fill:#ffc73c;fill-opacity:1;fill-rule:nonzero;stroke:none"
           d="m 16300,4367.84 h -119.4 v 308.87 h 119.4 v -308.87" /></g><g
         transform="scale(1.19492)"
         id="g386"><path
           id="path388"
           style="fill:#ffc73c;fill-opacity:1;fill-rule:nonzero;stroke:none"
           d="m 16300,4348.32 h -340.4 v 451.5 h 340.4 v -451.5" /></g><g
         transform="scale(1.34781)"
         id="g390"><path
           id="path392"
           style="fill:#8b018d;fill-opacity:1;fill-rule:nonzero;stroke:none"
           d="M 13461.1,5463.53 H 16300 v 400.31 h -2838.9 v -400.31" /></g><g
         transform="scale(1.32661)"
         id="g394"><path
           id="path396"
           style="fill:#381f7a;fill-opacity:1;fill-rule:nonzero;stroke:none"
           d="m 16191.2,5550.85 h 108.8 v 406.71 h -108.8 v -406.71" /></g><g
         transform="scale(1.31239)"
         id="g398"><path
           id="path400"
           style="fill:#381f7a;fill-opacity:1;fill-rule:nonzero;stroke:none"
           d="m 16131.2,5611 h 168.8 v 411.11 h -168.8 V 5611" /></g><g
         transform="scale(1.37119)"
         id="g402"><path
           id="path404"
           style="fill:#ffc73c;fill-opacity:1;fill-rule:nonzero;stroke:none"
           d="m 16300,4760.23 h -2790.5 v 610.14 H 16300 v -610.14" /></g><g
         transform="scale(1.1665)"
         id="g406"><path
           id="path408"
           style="fill:#26a8d1;fill-opacity:1;fill-rule:nonzero;stroke:none"
           d="m 16300,5725.38 h -123.7 v 476.84 h 123.7 v -476.84" /></g><g
         transform="scale(1.3558)"
         id="g410"><path
           id="path412"
           style="fill:#26a8d1;fill-opacity:1;fill-rule:nonzero;stroke:none"
           d="m 16300,4925.99 h -106.4 v 410.26 h 106.4 v -410.26" /></g><g
         transform="scale(1.33988)"
         id="g414"><path
           id="path416"
           style="fill:#26a8d1;fill-opacity:1;fill-rule:nonzero;stroke:none"
           d="m 16300,4984.52 h -107.8 v 415.14 h 107.8 v -415.14" /></g><g
         transform="scale(1.20891)"
         id="g418"><path
           id="path420"
           style="fill:#26a8d1;fill-opacity:1;fill-rule:nonzero;stroke:none"
           d="m 16300,5754.62 c 0,-127.07 -103,-230.07 -230,-230.07 -127.1,0 -230.1,103 -230.1,230.07 0,127.04 103,230.05 230.1,230.05 127,0 230,-103.01 230,-230.05" /></g><g
         transform="scale(1.30842)"
         id="g422"><path
           id="path424"
           style="fill:#00a3d5;fill-opacity:1;fill-rule:nonzero;stroke:none"
           d="m 16300,4275.62 h -150.5 v 443.86 h 150.5 v -443.86" /></g><g
         transform="scale(1.72975)"
         id="g426"><path
           id="path428"
           style="fill:#ffffff;fill-opacity:1;fill-rule:nonzero;stroke:none"
           d="M 16300,0 H 0 V 1536.12 H 16300 V 0" /></g></g></g></svg>