<?xml version="1.0" encoding="UTF-8" standalone="no"?>
<svg
   xmlns:dc="http://purl.org/dc/elements/1.1/"
   xmlns:cc="http://creativecommons.org/ns#"
   xmlns:rdf="http://www.w3.org/1999/02/22-rdf-syntax-ns#"
   xmlns:svg="http://www.w3.org/2000/svg"
   xmlns="http://www.w3.org/2000/svg"
   viewBox="0 0 2666.6667 2666.6667"
   height="2666.6667"
   width="2666.6667"
   xml:space="preserve"
   id="svg2"
   version="1.1"><metadata
     id="metadata8"><rdf:RDF><cc:Work
         rdf:about=""><dc:format>image/svg+xml</dc:format><dc:type
           rdf:resource="http://purl.org/dc/dcmitype/StillImage" /></cc:Work></rdf:RDF></metadata><defs
     id="defs6"><clipPath
       id="clipPath24"
       clipPathUnits="userSpaceOnUse"><path
         id="path22"
         d="m 10341.9,6406.5 c -101,80.9 -160.3,183.8 -160.3,294 v 706.3 h -825.58 v -706.3 c 0,-110.2 -59.3,-213.1 -160.29,-294 z" /></clipPath><linearGradient
       id="linearGradient30"
       spreadMethod="pad"
       gradientTransform="matrix(672.336,-2775.54,-2775.54,-672.336,9045.12,9563.3)"
       gradientUnits="userSpaceOnUse"
       y2="0"
       x2="1"
       y1="0"
       x1="0"><stop
         id="stop26"
         offset="0"
         style="stop-opacity:1;stop-color:#22ffe5" /><stop
         id="stop28"
         offset="1"
         style="stop-opacity:1;stop-color:#2e3dff" /></linearGradient><clipPath
       id="clipPath40"
       clipPathUnits="userSpaceOnUse"><path
         id="path38"
         d="m 8398.59,6053 c 0,-68 55.1,-123.1 123.07,-123.1 621.69,0 1872.74,0 2494.34,0 160.1,0.6 161.5,245.4 -0.1,246.1 H 8521.66 c -67.97,0 -123.07,-55.1 -123.07,-123 z" /></clipPath><linearGradient
       id="linearGradient46"
       spreadMethod="pad"
       gradientTransform="matrix(672.336,-2775.54,-2775.54,-672.336,8924.6,9534.1)"
       gradientUnits="userSpaceOnUse"
       y2="0"
       x2="1"
       y1="0"
       x1="0"><stop
         id="stop42"
         offset="0"
         style="stop-opacity:1;stop-color:#22ffe5" /><stop
         id="stop44"
         offset="1"
         style="stop-opacity:1;stop-color:#2e3dff" /></linearGradient><clipPath
       id="clipPath56"
       clipPathUnits="userSpaceOnUse"><path
         id="path54"
         d="M 10265.9,9135.1 C 8279.11,8328.8 6471.16,8027.7 5422.42,8247.1 v -408.2 c 0,-111.4 90.29,-201.7 201.67,-201.7 h 4242.7 v 2.1 h 4074.41 c 98.3,13.6 174,97.6 174,199.6 v 3555.6 C 13196.6,10592.6 11830.7,9770 10265.9,9135.1 Z" /></clipPath><linearGradient
       id="linearGradient62"
       spreadMethod="pad"
       gradientTransform="matrix(2223.88,-6891.44,-6891.44,-2223.88,8477.62,13601.9)"
       gradientUnits="userSpaceOnUse"
       y2="0"
       x2="1"
       y1="0"
       x1="0"><stop
         id="stop58"
         offset="0"
         style="stop-opacity:1;stop-color:#22ffe5" /><stop
         id="stop60"
         offset="1"
         style="stop-opacity:1;stop-color:#2e3dff" /></linearGradient><clipPath
       id="clipPath72"
       clipPathUnits="userSpaceOnUse"><path
         id="path70"
         d="m 14115.2,10239.1 v 641.6 C 13418,10428.5 12613.1,9996.1 11744,9621.8 10979.2,9292.4 10239.9,9040.3 9560.73,8867.2 8316.3,8426.8 7174.55,8195.9 6289.66,8178.7 c 961.23,-468.4 3141.78,-157.7 5564.44,885.9 818.3,352.4 1582.7,753.4 2261.1,1174.5 z" /></clipPath><linearGradient
       id="linearGradient78"
       spreadMethod="pad"
       gradientTransform="matrix(2947.94,-3516.83,-3516.83,-2947.94,8437.46,11635.3)"
       gradientUnits="userSpaceOnUse"
       y2="0"
       x2="1"
       y1="0"
       x1="0"><stop
         id="stop74"
         offset="0"
         style="stop-opacity:1;stop-color:#22ffe5" /><stop
         id="stop76"
         offset="1"
         style="stop-opacity:1;stop-color:#2e3dff" /></linearGradient><clipPath
       id="clipPath88"
       clipPathUnits="userSpaceOnUse"><path
         id="path86"
         d="m 14825.3,13365.4 c -197.8,998.7 -2425.2,923.4 -5033.89,-146.4 h -22.6 -27.29 -4117.43 c -111.38,0 -201.67,-90.3 -201.67,-201.6 V 10296.6 C 5080.63,9857.4 4916.86,9450.7 4982.15,9121 c 18.03,-91 53.01,-173.1 103.53,-246.3 4.48,252.8 123.07,541.8 336.74,850.3 V 8247.1 c 2721.84,-732.1 7316.18,2366.7 8692.78,3987.2 v 783.1 c 0,111.3 -90.3,201.6 -201.7,201.6 h -2822 c 1908.2,583.8 3419.1,548.7 3736.4,-143.4 15.9,101.8 15.4,198.8 -2.6,289.8 z" /></clipPath><linearGradient
       id="linearGradient94"
       spreadMethod="pad"
       gradientTransform="matrix(4332.46,-13425.6,-13425.6,-4332.46,8486.3,15635.6)"
       gradientUnits="userSpaceOnUse"
       y2="0"
       x2="1"
       y1="0"
       x1="0"><stop
         id="stop90"
         offset="0"
         style="stop-opacity:1;stop-color:#22ffe5" /><stop
         id="stop92"
         offset="1"
         style="stop-opacity:1;stop-color:#2e3dff" /></linearGradient><clipPath
       id="clipPath104"
       clipPathUnits="userSpaceOnUse"><path
         id="path102"
         d="m 4584.37,8934.5 c 220.71,-1116.6 2785.56,-994.2 5728.73,273.5 2943.2,1267.8 5150.2,3200.7 4929.5,4317.3 -23.7,119.9 -74.4,225.4 -149.7,316.8 303.5,-134.2 496.4,-340 551.4,-618.6 233.8,-1182.7 -2103.8,-3230 -5221,-4572.7 C 7305.98,7308.1 4589.42,7178.4 4355.66,8361.1 c -55.07,278.7 32.61,605.3 239.52,959.3 -30.14,-136.8 -34.49,-266 -10.81,-385.9 z" /></clipPath><linearGradient
       id="linearGradient110"
       spreadMethod="pad"
       gradientTransform="matrix(17597.1,5430.41,5430.41,-17597.1,6252.68,9187.5)"
       gradientUnits="userSpaceOnUse"
       y2="0"
       x2="1"
       y1="0"
       x1="0"><stop
         id="stop106"
         offset="0"
         style="stop-opacity:1;stop-color:#22ffe5" /><stop
         id="stop108"
         offset="1"
         style="stop-opacity:1;stop-color:#2e3dff" /></linearGradient></defs><g
     transform="matrix(1.3333333,0,0,-1.3333333,0,2666.6667)"
     id="g10"><g
       transform="scale(0.1)"
       id="g12"><g
         transform="scale(1.22699)"
         id="g14"><path
           id="path16"
           style="fill:transparent;fill-opacity:1;fill-rule:nonzero;stroke:none"
           d="M 16300,0 H 0 V 16300 H 16300 V 0" /></g><g
         id="g18"><g
           clip-path="url(#clipPath24)"
           id="g20"><path
             id="path32"
             style="fill:url(#linearGradient30);fill-opacity:1;fill-rule:nonzero;stroke:none"
             d="m 10341.9,6406.5 c -101,80.9 -160.3,183.8 -160.3,294 v 706.3 h -825.58 v -706.3 c 0,-110.2 -59.3,-213.1 -160.29,-294 h 1146.17" /></g></g><g
         id="g34"><g
           clip-path="url(#clipPath40)"
           id="g36"><path
             id="path48"
             style="fill:url(#linearGradient46);fill-opacity:1;fill-rule:nonzero;stroke:none"
             d="m 8398.59,6053 c 0,-68 55.1,-123.1 123.07,-123.1 621.69,0 1872.74,0 2494.34,0 160.1,0.6 161.5,245.4 -0.1,246.1 H 8521.66 c -67.97,0 -123.07,-55.1 -123.07,-123" /></g></g><g
         id="g50"><g
           clip-path="url(#clipPath56)"
           id="g52"><path
             id="path64"
             style="fill:url(#linearGradient62);fill-opacity:1;fill-rule:nonzero;stroke:none"
             d="M 10265.9,9135.1 C 8279.11,8328.8 6471.16,8027.7 5422.42,8247.1 v -408.2 c 0,-111.4 90.29,-201.7 201.67,-201.7 h 4242.7 v 2.1 h 4074.41 c 98.3,13.6 174,97.6 174,199.6 v 3555.6 C 13196.6,10592.6 11830.7,9770 10265.9,9135.1" /></g></g><g
         id="g66"><g
           clip-path="url(#clipPath72)"
           id="g68"><path
             id="path80"
             style="fill:url(#linearGradient78);fill-opacity:1;fill-rule:nonzero;stroke:none"
             d="m 14115.2,10239.1 v 641.6 C 13418,10428.5 12613.1,9996.1 11744,9621.8 10979.2,9292.4 10239.9,9040.3 9560.73,8867.2 8316.3,8426.8 7174.55,8195.9 6289.66,8178.7 c 961.23,-468.4 3141.78,-157.7 5564.44,885.9 818.3,352.4 1582.7,753.4 2261.1,1174.5" /></g></g><g
         id="g82"><g
           clip-path="url(#clipPath88)"
           id="g84"><path
             id="path96"
             style="fill:url(#linearGradient94);fill-opacity:1;fill-rule:nonzero;stroke:none"
             d="m 14825.3,13365.4 c -197.8,998.7 -2425.2,923.4 -5033.89,-146.4 h -22.6 -27.29 -4117.43 c -111.38,0 -201.67,-90.3 -201.67,-201.6 V 10296.6 C 5080.63,9857.4 4916.86,9450.7 4982.15,9121 c 18.03,-91 53.01,-173.1 103.53,-246.3 4.48,252.8 123.07,541.8 336.74,850.3 V 8247.1 c 2721.84,-732.1 7316.18,2366.7 8692.78,3987.2 v 783.1 c 0,111.3 -90.3,201.6 -201.7,201.6 h -2822 c 1908.2,583.8 3419.1,548.7 3736.4,-143.4 15.9,101.8 15.4,198.8 -2.6,289.8" /></g></g><g
         id="g98"><g
           clip-path="url(#clipPath104)"
           id="g100"><path
             id="path112"
             style="fill:url(#linearGradient110);fill-opacity:1;fill-rule:nonzero;stroke:none"
             d="m 4584.37,8934.5 c 220.71,-1116.6 2785.56,-994.2 5728.73,273.5 2943.2,1267.8 5150.2,3200.7 4929.5,4317.3 -23.7,119.9 -74.4,225.4 -149.7,316.8 303.5,-134.2 496.4,-340 551.4,-618.6 233.8,-1182.7 -2103.8,-3230 -5221,-4572.7 C 7305.98,7308.1 4589.42,7178.4 4355.66,8361.1 c -55.07,278.7 32.61,605.3 239.52,959.3 -30.14,-136.8 -34.49,-266 -10.81,-385.9" /></g></g></g></g></svg>