<?xml version="1.0" encoding="UTF-8" standalone="no"?>
<svg
   xmlns:dc="http://purl.org/dc/elements/1.1/"
   xmlns:cc="http://creativecommons.org/ns#"
   xmlns:rdf="http://www.w3.org/1999/02/22-rdf-syntax-ns#"
   xmlns:svg="http://www.w3.org/2000/svg"
   xmlns="http://www.w3.org/2000/svg"
   viewBox="0 0 5333.3335 4000"
   height="4000"
   width="5333.3335"
   xml:space="preserve"
   id="svg2"
   version="1.1"><metadata
     id="metadata8"><rdf:RDF><cc:Work
         rdf:about=""><dc:format>image/svg+xml</dc:format><dc:type
           rdf:resource="http://purl.org/dc/dcmitype/StillImage" /></cc:Work></rdf:RDF></metadata><defs
     id="defs6" /><g
     transform="matrix(1.3333333,0,0,-1.3333333,0,4000)"
     id="g10"><g
       transform="scale(0.1)"
       id="g12"><g
         transform="scale(1.95166)"
         id="g14"><path
           id="path16"
           style="fill:#ffffff;fill-opacity:1;fill-rule:nonzero;stroke:none"
           d="m 4581.55,11104.4 h 11332.35 2.2 2.2 l 2.3,-0.1 h 2.2 1 l 1.3,-0.1 2.2,-0.1 c 101,-3.4 192.4,-46.1 259.4,-113.1 69.9,-69.9 113.3,-166.5 113.3,-272.8 V 4653.31 c 0,-68.91 -18.3,-133.73 -50.1,-189.85 l 15.7,-12.24 -85.7,-77.25 c -66.3,-63.19 -154.9,-103.18 -252.6,-106.56 l -2.2,-0.07 -1.3,-0.05 -1,-0.01 -2.2,-0.05 -2.3,-0.04 -2.2,-0.01 -2.2,-0.01 H 4581.55 l -2.25,0.01 -2.24,0.01 -2.24,0.04 -2.24,0.05 -0.97,0.01 -1.27,0.05 -2.24,0.07 c -97.66,3.38 -186.34,43.37 -252.64,106.56 l -85.7,77.25 15.78,12.24 c -31.89,56.12 -50.14,120.94 -50.14,189.85 v 6064.89 c 0,106.3 43.42,202.9 113.35,272.8 66.97,67 158.37,109.7 259.35,113.1 l 2.24,0.1 1.27,0.1 h 0.97 2.24 l 2.24,0.1 h 2.24 2.25" /></g><g
         transform="scale(1.95166)"
         id="g18"><path
           id="path20"
           style="fill:#000000;fill-opacity:1;fill-rule:nonzero;stroke:none"
           d="M 4581.55,11104.4 H 15913.9 c 102.8,-0.3 199.7,-40.3 272.8,-113.4 69.9,-69.9 113.3,-166.5 113.3,-272.8 V 4653.31 c 0,-211.32 -142.2,-377.94 -372.7,-385.9 l -2.2,-0.07 -1.3,-0.05 -1,-0.02 -2.2,-0.04 -2.3,-0.03 -2.2,-0.02 -2.2,-0.01 H 4581.55 l -2.25,0.01 -2.24,0.02 -2.24,0.03 -2.24,0.04 -0.97,0.02 -1.27,0.05 -2.24,0.07 c -230.48,7.96 -372.7,174.58 -372.7,385.9 v 6064.89 c 0,106.3 43.42,202.9 113.35,272.8 73.02,73.1 169.99,113.1 272.8,113.4 z M 16078.5,10775.1 12097.4,7685.78 16078.5,4596.41 c 6.3,17.86 9.7,37.01 9.7,56.9 v 6064.89 c 0,19.9 -3.4,39.1 -9.7,56.9 z M 8397.97,7685.78 4416.87,10775.1 c -6.24,-17.8 -9.64,-37 -9.64,-56.9 V 4653.31 c 0,-19.89 3.4,-39.04 9.64,-56.9 z M 4610.04,10892.6 8570.21,7819.44 9980.62,6724.95 c 50.88,-39.45 61.28,-47.67 70.88,-55.19 218,-171.12 174.4,-171.12 392.4,0 9.6,7.52 20,15.73 70.9,55.19 l 1410.4,1094.49 3960.2,3073.16 z M 15885.4,4478.99 11925.2,7552.12 10643.9,6557.8 c -388.4,-304.87 -395.2,-311.82 -792.36,0 L 8570.21,7552.12 4610.04,4478.99 H 15885.4" /></g></g></g></svg>