<?xml version="1.0" encoding="UTF-8" standalone="no"?>
<svg
   xmlns:dc="http://purl.org/dc/elements/1.1/"
   xmlns:cc="http://creativecommons.org/ns#"
   xmlns:rdf="http://www.w3.org/1999/02/22-rdf-syntax-ns#"
   xmlns:svg="http://www.w3.org/2000/svg"
   xmlns="http://www.w3.org/2000/svg"
   viewBox="0 0 2560 2560"
   height="2560"
   width="2560"
   xml:space="preserve"
   id="svg2"
   version="1.1"><metadata
     id="metadata8"><rdf:RDF><cc:Work
         rdf:about=""><dc:format>image/svg+xml</dc:format><dc:type
           rdf:resource="http://purl.org/dc/dcmitype/StillImage" /></cc:Work></rdf:RDF></metadata><defs
     id="defs6" /><g
     transform="matrix(1.3333333,0,0,-1.3333333,0,2560)"
     id="g10"><g
       transform="scale(0.1)"
       id="g12"><g
         transform="scale(1.17791)"
         id="g14"><path
           id="path16"
           style="fill:#ffffff;fill-opacity:1;fill-rule:evenodd;stroke:none"
           d="M 16300,0 H 0 V 16300 H 16300 V 0" /></g><g
         transform="scale(1.02342)"
         id="g18"><path
           id="path20"
           style="fill:#040606;fill-opacity:1;fill-rule:evenodd;stroke:none"
           d="m 9385.61,16175.7 c -3823.58,0 -6914.57,-3113.8 -6914.57,-6965.96 0,-3079.24 1980.51,-5685.78 4727.99,-6608.27 343.51,-69.38 469.33,149.88 469.33,334.27 0,161.51 -11.32,715.05 -11.32,1291.84 -1923.47,-415.28 -2324.02,830.35 -2324.02,830.35 -309.11,807.29 -767.12,1014.83 -767.12,1014.83 -629.54,426.7 45.87,426.7 45.87,426.7 698.33,-46.12 1064.77,-715.05 1064.77,-715.05 618.08,-1060.95 1614.06,-761.17 2014.75,-576.59 57.18,449.76 240.47,761.17 435.08,934.12 -1534.1,161.51 -3148.18,761.17 -3148.18,3436.92 0,761.14 274.58,1383.94 709.67,1868.24 -68.65,173 -309.12,888.2 68.78,1845.4 0,0 583.83,184.5 1900.26,-715.1 563.6,152.5 1144.84,230.1 1728.71,230.7 583.87,0 1178.99,-80.8 1728.59,-230.7 1316.5,899.6 1900.4,715.1 1900.4,715.1 377.9,-957.2 137.2,-1672.4 68.6,-1845.4 446.6,-484.3 709.8,-1107.1 709.8,-1868.24 0,-2675.75 -1614.1,-3263.78 -3159.6,-3436.92 251.9,-219.07 469.3,-634.25 469.3,-1291.65 0,-934.12 -11.3,-1683.86 -11.3,-1914.36 0,-184.58 126,-403.84 469.3,-334.66 2747.6,922.88 4728,3529.23 4728,6608.47 11.3,3852.16 -3090.9,6965.96 -6903.09,6965.96" /></g></g></g></svg>