<?xml version="1.0" encoding="UTF-8" standalone="no"?>
<svg
   xmlns:dc="http://purl.org/dc/elements/1.1/"
   xmlns:cc="http://creativecommons.org/ns#"
   xmlns:rdf="http://www.w3.org/1999/02/22-rdf-syntax-ns#"
   xmlns:svg="http://www.w3.org/2000/svg"
   xmlns="http://www.w3.org/2000/svg"
   viewBox="0 0 6666.6665 6666.6665"
   height="6666.6665"
   width="6666.6665"
   xml:space="preserve"
   id="svg2"
   version="1.1"><metadata
     id="metadata8"><rdf:RDF><cc:Work
         rdf:about=""><dc:format>image/svg+xml</dc:format><dc:type
           rdf:resource="http://purl.org/dc/dcmitype/StillImage" /></cc:Work></rdf:RDF></metadata><defs
     id="defs6" /><g
     transform="matrix(1.3333333,0,0,-1.3333333,0,6666.6667)"
     id="g10"><g
       transform="scale(0.1)"
       id="g12"><g
         transform="scale(3.06748)"
         id="g14"><path
           id="path16"
           style="fill:#ffffff;fill-opacity:1;fill-rule:nonzero;stroke:none"
           d="M 16300,0 H 0 V 16300 H 16300 V 0" /></g><g
         transform="scale(2.26994)"
         id="g18"><path
           id="path20"
           style="fill:#5e6061;fill-opacity:1;fill-rule:nonzero;stroke:none"
           d="m 15887.3,8121.41 c 0,-267.72 -52.3,-527.2 -155.6,-771.26 -99.8,-235.91 -242.7,-447.89 -424.8,-630.01 -182.1,-182.12 -394.1,-325.03 -630,-424.86 -244.1,-103.22 -503.6,-155.55 -771.3,-155.55 H 8121.41 c -267.72,0 -527.2,52.33 -771.26,155.55 -235.9,99.83 -447.89,242.74 -630.01,424.86 -182.12,182.12 -325.03,394.1 -424.86,630.01 -103.22,244.06 -155.55,503.54 -155.55,771.26 v 5784.19 c 0,267.7 52.33,527.2 155.55,771.3 99.83,235.9 242.74,447.9 424.86,630 182.12,182.1 394.11,325 630.01,424.8 244.06,103.3 503.54,155.6 771.26,155.6 h 5784.19 c 267.7,0 527.2,-52.3 771.3,-155.6 235.9,-99.8 447.9,-242.7 630,-424.8 182.1,-182.1 325,-394.1 424.8,-630 103.3,-244.1 155.6,-503.6 155.6,-771.3 z M 13905.6,16300 H 8121.41 c -1322.37,0 -2394.38,-1072 -2394.38,-2394.4 V 8121.41 c 0,-1322.37 1072.01,-2394.38 2394.38,-2394.38 h 5784.19 c 1322.4,0 2394.4,1072.01 2394.4,2394.38 v 5784.19 c 0,1322.4 -1072,2394.4 -2394.4,2394.4" /></g><g
         transform="scale(1.90837)"
         id="g22"><path
           id="path24"
           style="fill:#5e6061;fill-opacity:1;fill-rule:nonzero;stroke:none"
           d="m 15809.1,13100.2 c 0,-366 -71.6,-720.7 -212.7,-1054.3 -67.8,-160.4 -151.8,-315.2 -249.7,-460 -97,-143.5 -208.4,-278.5 -331,-401.2 -122.8,-122.7 -257.7,-234.1 -401.3,-331.1 -144.8,-97.8 -299.5,-181.8 -459.9,-249.7 -333.7,-141.1 -688.4,-212.6 -1054.3,-212.6 -366,0 -720.7,71.5 -1054.3,212.6 -160.4,67.9 -315.2,151.9 -460,249.7 -143.5,97 -278.5,208.4 -401.2,331.1 -122.7,122.7 -234.1,257.7 -331.1,401.2 -97.8,144.8 -181.8,299.6 -249.7,460 -141.1,333.6 -212.6,688.3 -212.6,1054.3 0,365.9 71.5,720.6 212.6,1054.3 67.9,160.4 151.9,315.1 249.7,459.9 97,143.6 208.4,278.5 331.1,401.3 122.7,122.6 257.7,234 401.2,331 144.8,97.9 299.6,181.9 460,249.7 333.6,141.1 688.3,212.7 1054.3,212.7 365.9,0 720.6,-71.6 1054.3,-212.7 160.4,-67.8 315.1,-151.8 459.9,-249.7 143.6,-97 278.5,-208.4 401.3,-331 122.6,-122.8 234,-257.7 331,-401.3 97.9,-144.8 181.9,-299.5 249.7,-459.9 141.1,-333.7 212.7,-688.4 212.7,-1054.3 z M 13100.2,16300 c -1767.3,0 -3199.89,-1432.6 -3199.89,-3199.8 0,-1767.3 1432.59,-3199.89 3199.89,-3199.89 1767.2,0 3199.8,1432.59 3199.8,3199.89 0,1767.2 -1432.6,3199.8 -3199.8,3199.8" /></g><g
         transform="scale(2.03236)"
         id="g26"><path
           id="path28"
           style="fill:#5e6061;fill-opacity:1;fill-rule:nonzero;stroke:none"
           d="m 15759.4,16300 c -298.5,0 -540.6,-242 -540.6,-540.6 0,-298.5 242.1,-540.6 540.6,-540.6 298.6,0 540.6,242.1 540.6,540.6 0,298.6 -242,540.6 -540.6,540.6" /></g></g></g></svg>